<mxfile host="app.diagrams.net" agent="Mozilla/5.0 (Windows NT 10.0; Win64; x64) AppleWebKit/537.36 (KHTML, like Gecko) Chrome/136.0.0.0 Safari/537.36 Edg/136.0.0.0" version="27.0.9">
  <diagram name="Page-1" id="cLwUf8vpZlbldlb4XI-L">
    <mxGraphModel dx="1418" dy="834" grid="1" gridSize="10" guides="1" tooltips="1" connect="1" arrows="1" fold="1" page="1" pageScale="1" pageWidth="827" pageHeight="1169" math="0" shadow="0">
      <root>
        <mxCell id="0" />
        <mxCell id="1" parent="0" />
        <mxCell id="WWWjpygxG9Q1qbzd4xO2-25" style="edgeStyle=orthogonalEdgeStyle;rounded=0;orthogonalLoop=1;jettySize=auto;html=1;exitX=1;exitY=0.5;exitDx=0;exitDy=0;entryX=0;entryY=0.5;entryDx=0;entryDy=0;" edge="1" parent="1" source="WWWjpygxG9Q1qbzd4xO2-1" target="WWWjpygxG9Q1qbzd4xO2-3">
          <mxGeometry relative="1" as="geometry" />
        </mxCell>
        <mxCell id="WWWjpygxG9Q1qbzd4xO2-1" value="24 V power supply" style="rounded=0;whiteSpace=wrap;html=1;" vertex="1" parent="1">
          <mxGeometry x="109" y="80" width="120" height="60" as="geometry" />
        </mxCell>
        <mxCell id="WWWjpygxG9Q1qbzd4xO2-36" style="edgeStyle=orthogonalEdgeStyle;rounded=0;orthogonalLoop=1;jettySize=auto;html=1;exitX=0.5;exitY=0;exitDx=0;exitDy=0;entryX=0.5;entryY=1;entryDx=0;entryDy=0;" edge="1" parent="1" source="WWWjpygxG9Q1qbzd4xO2-2" target="WWWjpygxG9Q1qbzd4xO2-21">
          <mxGeometry relative="1" as="geometry" />
        </mxCell>
        <mxCell id="WWWjpygxG9Q1qbzd4xO2-2" value="12 V power supply" style="rounded=0;whiteSpace=wrap;html=1;" vertex="1" parent="1">
          <mxGeometry x="159" y="260" width="120" height="60" as="geometry" />
        </mxCell>
        <mxCell id="WWWjpygxG9Q1qbzd4xO2-11" style="edgeStyle=orthogonalEdgeStyle;rounded=0;orthogonalLoop=1;jettySize=auto;html=1;exitX=1;exitY=0.75;exitDx=0;exitDy=0;entryX=0;entryY=0.5;entryDx=0;entryDy=0;" edge="1" parent="1" source="WWWjpygxG9Q1qbzd4xO2-3" target="WWWjpygxG9Q1qbzd4xO2-10">
          <mxGeometry relative="1" as="geometry" />
        </mxCell>
        <mxCell id="WWWjpygxG9Q1qbzd4xO2-13" style="edgeStyle=orthogonalEdgeStyle;rounded=0;orthogonalLoop=1;jettySize=auto;html=1;exitX=1;exitY=0.25;exitDx=0;exitDy=0;entryX=0;entryY=0.5;entryDx=0;entryDy=0;" edge="1" parent="1" source="WWWjpygxG9Q1qbzd4xO2-3" target="WWWjpygxG9Q1qbzd4xO2-9">
          <mxGeometry relative="1" as="geometry" />
        </mxCell>
        <mxCell id="WWWjpygxG9Q1qbzd4xO2-3" value="ON/OFF switch&lt;div&gt;current sense block&lt;/div&gt;" style="rounded=0;whiteSpace=wrap;html=1;" vertex="1" parent="1">
          <mxGeometry x="299" y="80" width="120" height="60" as="geometry" />
        </mxCell>
        <mxCell id="WWWjpygxG9Q1qbzd4xO2-27" style="edgeStyle=orthogonalEdgeStyle;rounded=0;orthogonalLoop=1;jettySize=auto;html=1;exitX=1;exitY=0.5;exitDx=0;exitDy=0;entryX=0.5;entryY=1;entryDx=0;entryDy=0;" edge="1" parent="1" source="WWWjpygxG9Q1qbzd4xO2-5">
          <mxGeometry relative="1" as="geometry">
            <mxPoint x="659" y="140" as="targetPoint" />
          </mxGeometry>
        </mxCell>
        <mxCell id="WWWjpygxG9Q1qbzd4xO2-28" style="edgeStyle=orthogonalEdgeStyle;rounded=0;orthogonalLoop=1;jettySize=auto;html=1;exitX=0.5;exitY=0;exitDx=0;exitDy=0;entryX=0.5;entryY=1;entryDx=0;entryDy=0;" edge="1" parent="1" source="WWWjpygxG9Q1qbzd4xO2-5" target="WWWjpygxG9Q1qbzd4xO2-3">
          <mxGeometry relative="1" as="geometry" />
        </mxCell>
        <mxCell id="WWWjpygxG9Q1qbzd4xO2-5" value="AD7293" style="rounded=0;whiteSpace=wrap;html=1;" vertex="1" parent="1">
          <mxGeometry x="299" y="170" width="120" height="60" as="geometry" />
        </mxCell>
        <mxCell id="WWWjpygxG9Q1qbzd4xO2-15" style="edgeStyle=orthogonalEdgeStyle;rounded=0;orthogonalLoop=1;jettySize=auto;html=1;exitX=1;exitY=0.5;exitDx=0;exitDy=0;entryX=0;entryY=0.25;entryDx=0;entryDy=0;" edge="1" parent="1" source="WWWjpygxG9Q1qbzd4xO2-9">
          <mxGeometry relative="1" as="geometry">
            <mxPoint x="599" y="95" as="targetPoint" />
          </mxGeometry>
        </mxCell>
        <mxCell id="WWWjpygxG9Q1qbzd4xO2-9" value="A" style="verticalLabelPosition=middle;shadow=0;dashed=0;align=center;html=1;verticalAlign=middle;strokeWidth=1;shape=ellipse;aspect=fixed;fontSize=50;" vertex="1" parent="1">
          <mxGeometry x="489" y="60" width="50" height="50" as="geometry" />
        </mxCell>
        <mxCell id="WWWjpygxG9Q1qbzd4xO2-14" style="edgeStyle=orthogonalEdgeStyle;rounded=0;orthogonalLoop=1;jettySize=auto;html=1;exitX=1;exitY=0.5;exitDx=0;exitDy=0;entryX=0;entryY=0.75;entryDx=0;entryDy=0;" edge="1" parent="1" source="WWWjpygxG9Q1qbzd4xO2-10">
          <mxGeometry relative="1" as="geometry">
            <mxPoint x="599" y="125" as="targetPoint" />
          </mxGeometry>
        </mxCell>
        <mxCell id="WWWjpygxG9Q1qbzd4xO2-10" value="A" style="verticalLabelPosition=middle;shadow=0;dashed=0;align=center;html=1;verticalAlign=middle;strokeWidth=1;shape=ellipse;aspect=fixed;fontSize=50;" vertex="1" parent="1">
          <mxGeometry x="489" y="120" width="50" height="50" as="geometry" />
        </mxCell>
        <mxCell id="WWWjpygxG9Q1qbzd4xO2-29" style="edgeStyle=orthogonalEdgeStyle;rounded=0;orthogonalLoop=1;jettySize=auto;html=1;exitX=1;exitY=0;exitDx=0;exitDy=0;fillColor=#d5e8d4;strokeColor=#82b366;" edge="1" parent="1" source="WWWjpygxG9Q1qbzd4xO2-51">
          <mxGeometry relative="1" as="geometry">
            <mxPoint x="659" y="200" as="targetPoint" />
            <mxPoint x="384" y="295" as="sourcePoint" />
            <Array as="points">
              <mxPoint x="371" y="331" />
              <mxPoint x="659" y="331" />
            </Array>
          </mxGeometry>
        </mxCell>
        <mxCell id="WWWjpygxG9Q1qbzd4xO2-37" style="edgeStyle=orthogonalEdgeStyle;rounded=0;orthogonalLoop=1;jettySize=auto;html=1;exitX=0;exitY=0;exitDx=0;exitDy=0;fillColor=#e1d5e7;strokeColor=#9673a6;" edge="1" parent="1" source="WWWjpygxG9Q1qbzd4xO2-51">
          <mxGeometry relative="1" as="geometry">
            <mxPoint x="269" y="110" as="targetPoint" />
            <mxPoint x="359" y="320" as="sourcePoint" />
            <Array as="points">
              <mxPoint x="190" y="350" />
              <mxPoint x="139" y="350" />
              <mxPoint x="139" y="160" />
              <mxPoint x="269" y="160" />
            </Array>
          </mxGeometry>
        </mxCell>
        <mxCell id="WWWjpygxG9Q1qbzd4xO2-38" style="edgeStyle=orthogonalEdgeStyle;rounded=0;orthogonalLoop=1;jettySize=auto;html=1;exitX=0.25;exitY=0;exitDx=0;exitDy=0;fillColor=#fff2cc;strokeColor=#d6b656;" edge="1" parent="1" source="WWWjpygxG9Q1qbzd4xO2-51">
          <mxGeometry relative="1" as="geometry">
            <mxPoint x="219" y="250" as="targetPoint" />
            <mxPoint x="334" y="295" as="sourcePoint" />
            <Array as="points">
              <mxPoint x="250" y="460" />
              <mxPoint x="250" y="295" />
              <mxPoint x="309" y="295" />
              <mxPoint x="309" y="250" />
            </Array>
          </mxGeometry>
        </mxCell>
        <mxCell id="WWWjpygxG9Q1qbzd4xO2-35" style="edgeStyle=orthogonalEdgeStyle;rounded=0;orthogonalLoop=1;jettySize=auto;html=1;exitX=1;exitY=0.5;exitDx=0;exitDy=0;entryX=0;entryY=0.5;entryDx=0;entryDy=0;" edge="1" parent="1" source="WWWjpygxG9Q1qbzd4xO2-21" target="WWWjpygxG9Q1qbzd4xO2-5">
          <mxGeometry relative="1" as="geometry" />
        </mxCell>
        <mxCell id="WWWjpygxG9Q1qbzd4xO2-21" value="DC to DC converters" style="rounded=0;whiteSpace=wrap;html=1;" vertex="1" parent="1">
          <mxGeometry x="159" y="170" width="120" height="60" as="geometry" />
        </mxCell>
        <mxCell id="WWWjpygxG9Q1qbzd4xO2-40" value="Aizvara V - 4 kan훮ls" style="text;html=1;align=center;verticalAlign=middle;whiteSpace=wrap;rounded=0;" vertex="1" parent="1">
          <mxGeometry x="470" y="270" width="121" height="30" as="geometry" />
        </mxCell>
        <mxCell id="WWWjpygxG9Q1qbzd4xO2-41" value="24 V - 2 kan훮ls" style="text;html=1;align=center;verticalAlign=middle;whiteSpace=wrap;rounded=0;" vertex="1" parent="1">
          <mxGeometry x="200" y="350" width="121" height="30" as="geometry" />
        </mxCell>
        <mxCell id="WWWjpygxG9Q1qbzd4xO2-42" value="12V - 1 kan훮ls" style="text;html=1;align=center;verticalAlign=middle;whiteSpace=wrap;rounded=0;" vertex="1" parent="1">
          <mxGeometry x="220" y="230" width="121" height="30" as="geometry" />
        </mxCell>
        <mxCell id="WWWjpygxG9Q1qbzd4xO2-44" value="" style="edgeStyle=orthogonalEdgeStyle;rounded=0;orthogonalLoop=1;jettySize=auto;html=1;exitX=0.75;exitY=0;exitDx=0;exitDy=0;fillColor=#dae8fc;strokeColor=#6c8ebf;" edge="1" parent="1" source="WWWjpygxG9Q1qbzd4xO2-51">
          <mxGeometry relative="1" as="geometry">
            <mxPoint x="359" y="160" as="targetPoint" />
            <mxPoint x="359" y="270" as="sourcePoint" />
            <Array as="points">
              <mxPoint x="320" y="460" />
              <mxPoint x="320" y="250" />
              <mxPoint x="449" y="250" />
              <mxPoint x="449" y="160" />
            </Array>
          </mxGeometry>
        </mxCell>
        <mxCell id="WWWjpygxG9Q1qbzd4xO2-43" value="ON/OFF - 3 kan훮ls" style="text;html=1;align=center;verticalAlign=middle;whiteSpace=wrap;rounded=0;" vertex="1" parent="1">
          <mxGeometry x="440" y="415" width="121" height="30" as="geometry" />
        </mxCell>
        <mxCell id="WWWjpygxG9Q1qbzd4xO2-45" value="D1" style="text;html=1;align=center;verticalAlign=middle;whiteSpace=wrap;rounded=0;" vertex="1" parent="1">
          <mxGeometry x="453.5" y="30" width="121" height="30" as="geometry" />
        </mxCell>
        <mxCell id="WWWjpygxG9Q1qbzd4xO2-46" value="D2" style="text;html=1;align=center;verticalAlign=middle;whiteSpace=wrap;rounded=0;" vertex="1" parent="1">
          <mxGeometry x="453.5" y="170" width="121" height="30" as="geometry" />
        </mxCell>
        <mxCell id="WWWjpygxG9Q1qbzd4xO2-49" value="" style="verticalLabelPosition=bottom;shadow=0;dashed=0;align=center;html=1;verticalAlign=top;shape=mxgraph.electrical.transistors.n-channel_jfet_1;" vertex="1" parent="1">
          <mxGeometry x="722" y="380" width="95" height="100" as="geometry" />
        </mxCell>
        <mxCell id="WWWjpygxG9Q1qbzd4xO2-50" value="" style="verticalLabelPosition=bottom;shadow=0;dashed=0;align=center;html=1;verticalAlign=top;shape=mxgraph.electrical.transistors.n-channel_jfet_1;" vertex="1" parent="1">
          <mxGeometry x="732" y="530" width="95" height="100" as="geometry" />
        </mxCell>
        <mxCell id="WWWjpygxG9Q1qbzd4xO2-51" value="" style="shape=image;verticalLabelPosition=bottom;labelBackgroundColor=default;verticalAlign=top;aspect=fixed;imageAspect=0;image=data:image/jpeg,/9j/4AAQSkZJRgABAQAAAQABAAD/4gHYSUNDX1BST0ZJTEUAAQEAAAHIAAAAAAQwAABtbnRyUkdCIFhZWiAH4AABAAEAAAAAAABhY3NwAAAAAAAAAAAAAAAAAAAAAAAAAAAAAAAAAAAAAQAA9tYAAQAAAADTLQAAAAAAAAAAAAAAAAAAAAAAAAAAAAAAAAAAAAAAAAAAAAAAAAAAAAAAAAAAAAAAAAAAAAlkZXNjAAAA8AAAACRyWFlaAAABFAAAABRnWFlaAAABKAAAABRiWFlaAAABPAAAABR3dHB0AAABUAAAABRyVFJDAAABZAAAAChnVFJDAAABZAAAAChiVFJDAAABZAAAAChjcHJ0AAABjAAAADxtbHVjAAAAAAAAAAEAAAAMZW5VUwAAAAgAAAAcAHMAUgBHAEJYWVogAAAAAAAAb6IAADj1AAADkFhZWiAAAAAAAABimQAAt4UAABjaWFlaIAAAAAAAACSgAAAPhAAAts9YWVogAAAAAAAA9tYAAQAAAADTLXBhcmEAAAAAAAQAAAACZmYAAPKnAAANWQAAE9AAAApbAAAAAAAAAABtbHVjAAAAAAAAAAEAAAAMZW5VUwAAACAAAAAcAEcAbwBvAGcAbABlACAASQBuAGMALgAgADIAMAAxADb/2wBDAAMCAgICAgMCAgIDAwMDBAYEBAQEBAgGBgUGCQgKCgkICQkKDA8MCgsOCwkJDRENDg8QEBEQCgwSExIQEw8QEBD/2wBDAQMDAwQDBAgEBAgQCwkLEBAQEBAQEBAQEBAQEBAQEBAQEBAQEBAQEBAQEBAQEBAQEBAQEBAQEBAQEBAQEBAQEBD/wAARCAG8AhIDASIAAhEBAxEB/8QAHgABAAEEAwEBAAAAAAAAAAAAAAkFBwgKAQIGAwT/xABkEAABAwIDAwIMEA0CBAIIBQUBAAIDBAUGBxEIEiEJMRMWGEFRVldhlrTS0xQZIjc4UlVxdoGRk5SV0fAVFyMyNEJYcnN1krGzgqEkM6LUYoMmNkNHU2OjwSUoNURmdIWyw+H/xAAWAQEBAQAAAAAAAAAAAAAAAAAAAQL/xAAaEQEBAQADAQAAAAAAAAAAAAAAAREhMUFx/9oADAMBAAIRAxEAPwCVNERAREQEREBERAREQEREBERAREQEREBERAREQEREBERAREQEREBERAREQEREBERAREQEREBERAREQEREBERAREQEREBERAREQEREBERAREQEREBERAREQEREBERAREQEREBERAREQEREBERAREQEREBERAREQEREBERAREQEREBERAREQEREBERAREQEREBERAREQEREBERAREQEREBERAREQEREBERAREQEREBERAREQEREBERAREQEREBERAREQEREBERAREQEREBERAREQEREBERAREQEREBERAREQEREBERAREQEREBERAREQEREBERAREQEREBERAREQEREBERAREQEREBERAREQEREBERAREQEREBERAREQEREBERAREQEREBERAREQEREBERAREQEREBERAREQEREBERAREQEREBERAREQEREBERAREQEREBERAREQEREBERAREQEREBERAREQEREBERAREQEREBERAREQEREBERAREQEREBERAREQEREBERAREQEREBERAREQEREBERAREQEREBERAREQEREBERAREQEREBEXVz2sGrjoEHZFTKzEuH7e/odfe7fTPPM2aqYw/ISvz9OuEO2i0fTovKRNVtFROnXCHbRaPp0XlJ064Q7aLR9Oi8pDVbRUTp1wh20Wj6dF5SdOuEO2i0fTovKQ1W0VE6dcIdtFo+nReUnTrhDtotH06LykNVtFROnXCHbRaPp0XlJ064Q7aLR9Oi8pDVbRUTp1wh20Wj6dF5SdOuEO2i0fTovKQ1W0VE6dcIdtFo+nReUnTrhDtotH06LykNVtFROnXCHbRaPp0XlJ064Q7aLR9Oi8pDVbRUTp1wh20Wj6dF5SdOuEO2i0fTovKQ1W0VE6dcIdtFo+nReUnTrhDtotH06LykNVtFROnXCHbRaPp0XlJ064Q7aLR9Oi8pDVbRUTp1wh20Wj6dF5SdOuEO2i0fTovKQ1W0VE6dcIdtFo+nReUnTrhDtotH06LykNVtFROnXCHbRaPp0XlJ064Q7aLR9Oi8pDVbRUTp1wh20Wj6dF5SdOuEO2i0fTovKQ1W0VE6dcIdtFo+nReUnTrhDtotH06LykNVtFROnXCHbRaPp0XlJ064Q7aLR9Oi8pDVbRUTp1wh20Wj6dF5SdOuEO2i0fTovKQ1W0VE6dcIdtFo+nReUnTrhDtotH06LykNVtFROnXCHbRaPp0XlJ064Q7aLR9Oi8pDVbRUTp1wh20Wj6dF5SdOuEO2i0fTovKQ1W0VE6dcIdtFo+nReUnTrhDtotH06LykNVtFROnXCHbRaPp0XlJ064Q7aLR9Oi8pDVbRUTp1wh20Wj6dF5SdOuEO2i0fTovKQ1W0VE6dcIdtFo+nReUnTrhDtotH06LykNVtFROnXCHbRaPp0XlJ064Q7aLR9Oi8pDVbRUTp1wh20Wj6dF5SdOuEO2i0fTovKQ1W0VE6dcIdtFo+nReUnTrhDtotH06LykNVtFROnXCHbRaPp0XlJ064Q7aLR9Oi8pDVbRfhor1arkC+33GlqWD9aGdrx/wBJK/aCDxCK5REQEREBERB5LM/M/BuUeC7jjvHV3ZbrTbI+iTSO4ucf1WMaOLnuOjWtHEkhQ/bSHKT515wV9XZ8vbrV4FwqHFkMFBLu19QwHg6apHqmEjjuxFoHMS/nPpeVTz+uGOM32ZN2ivcLBgprTVRMed2ouL2guc8cx6GxwYNeYuk7KtRsX7Ht+2qcYVDaqsmtWD7G5hu9xjaDK9ztd2nh14dEcATvEFrRoSCSGklrHy43S53irkrrtcaqtqZiXSTVMrpJHk85LnEklfl0P3Cn8wJsU7L+AbLHZ7Zkxhyt3QN+ou9Iy4TyOH6xknDyNefQaDvBek6mTZ17hWAvB6k82hjXf0P3CaH7hbEHUybOvcKwF4PUnm06mTZ17hWAvB6k82hjXf0P3CaH7hbEHUybOvcKwF4PUnm06mTZ17hWAvB6k82hjXf0P3CaH7hbEHUybOvcKwF4PUnm06mTZ17hWAvB6k82hjXf0P3CaH7hbEHUybOvcKwF4PUnm06mTZ17hWAvB6k82hjXf0P3CaH7hbEHUybOvcKwF4PUnm06mTZ17hWAvB6k82hjXf0P3CaH7hbEHUybOvcKwF4PUnm06mTZ17hWAvB6k82hjXf0P3CaH7hbEHUybOvcKwF4PUnm06mTZ17hWAvB6k82hjXf0P3CaH7hbEHUybOvcKwF4PUnm06mTZ17hWAvB6k82hjXf0P3CaH7hbEHUybOvcKwF4PUnm06mTZ17hWAvB6k82hjXf0P3CaH7hbEHUybOvcKwF4PUnm06mTZ17hWAvB6k82hjXf0P3CaH7hbEHUybOvcKwF4PUnm06mTZ17hWAvB6k82hjXf0P3CaH7hbEHUybOvcKwF4PUnm06mTZ17hWAvB6k82hjXf0P3CaH7hbEHUybOvcKwF4PUnm06mTZ17hWAvB6k82hjXf0P3CaH7hbEHUybOvcKwF4PUnm06mTZ17hWAvB6k82hjXf0P3CaH7hbEHUybOvcKwF4PUnm06mTZ17hWAvB6k82hjXf0P3CaH7hbEHUybOvcKwF4PUnm06mTZ17hWAvB6k82hjXf0P3CaH7hbEHUybOvcKwF4PUnm06mTZ17hWAvB6k82hjXf0P3CaH7hbEHUybOvcKwF4PUnm06mTZ17hWAvB6k82hjXf0P3CaH7hbEHUybOvcKwF4PUnm06mTZ17hWAvB6k82hjXf0P3CaH7hbEHUybOvcKwF4PUnm06mTZ17hWAvB6k82hjXf0P3CaH7hbEHUybOvcKwF4PUnm06mTZ17hWAvB6k82hjXf0P3CaH7hbEHUybOvcKwF4PUnm06mTZ17hWAvB6k82hjXf0P3CaH7hbEHUybOvcKwF4PUnm06mTZ17hWAvB6k82hjXf0P3CaH7hbEHUybOvcKwF4PUnm06mTZ17hWAvB6k82hjXf0P3CaH7hbEHUybOvcKwF4PUnm06mTZ17hWAvB6k82hjXf0P3CaH7hbEHUybOvcKwF4PUnm06mTZ17hWAvB6k82hjXf0P3CaH7hbEHUybOvcKwF4PUnm06mTZ17hWAvB6k82hjXf0P3CaFbEHUybOvcKwF4PUnm06mTZ17hWAvjw7SebQxr84YxtjLBFxZdcHYru9irGfmz26tkp3/KxwJ/spA9kXlRcQUd1ocAbSFa2ut1Q9sFNiZkYjlpXcA30UxgDXx9mRoDhrq4OGpblbnjyeGzjm1ZKltqwZR4NvYi0pblYoRTtjcObfp2aRSN7PqQ7TUBzedQ1Zz5Q4uyMzFu+W2NqURXG1SDR7DrHUwuGsc0Z67HN0I644g6EEAXhsY0dZTV9NHWUc7JoJmh8cjHBzXNI1BBHOCF91gdyUef1yzCysuOU+Jbkam54HdH6BfI4ufJbZNRG3U8dI3AsHYaWBZ4osEREBdXOLRqBquy6PQa7e0hcZrttA5kXKoJ358VXR5BOug9EyaDXvKXHkvcOUFl2SMOXGlgY2a81twraqQDQvkFS+JuvZ0ZGwfEog8+vXwzA+E9z8akUyXJq+w5wN+/cfHZkZjKBERGhEVPu9/s2H6KS5Xy60dvo4hrJUVU7Io2DslziAPlQVBFbc7SWz6CWnO/AYIOhHTHR+cTqktnzu34D8IqTziC5CK2/VJbPndvwH4RUnnE6pLZ87t+A/CKk84guQitv1SWz53b8B+EVJ5xOqS2fO7fgPwipPOILkIrb9Uls+d2/AfhFSecTqktnzu34D8IqTziC5CK2/VJbPndvwH4RUnnE6pLZ87t+A/CKk84guQitv1SWz53b8B+EVJ5xOqS2fO7fgPwipPOILkIrb9Uls+d2/AfhFSecTqktnzu34D8IqTziC5CK2/VJbPndvwH4RUnnE6pLZ87t+A/CKk84guQitv1SWz53b8B+EVJ5xOqS2fO7fgPwipPOILkIrb9Uls+d2/AfhFSecTqktnzu34D8IqTziC5CK2/VJbPndvwH4RUnnE6pLZ87t+A/CKk84guQitv1SWz53b8B+EVJ5xOqS2fO7fgPwipPOILkIrb9Uls+d2/AfhFSecTqktnzu34D8IqTziC5CK2/VJbPndvwH4RUnnE6pLZ87t+A/CKk84guQitv1SWz53b8B+EVJ5xOqS2fO7fgPwipPOILkIre0e0NkRcKmOioM5sD1FRKd1kUeIaRznHvASale9gqYamJs0EjJI3jVrmuBDh3iEH1REQEREBERAREQEREBERAREQEREBERAREQEREHBGvBRXcsphu20uMMt8UxQtbW11BcKOZ4HF7InxOYCe90WT5VKiVGLyz36TlX/Du/wDelRKtZyRdymotpK8ULCTHW4WqmPGvD1M8Dgf9j8qmOUM3JK+ygqvgzW/5IVMyhBERFF0eu66PQa6GfXr4ZgfCe5+NSKZLk1fYc4G/fuPjsyhtz69fDMD4T3PxqRTJcmr7DnA379x8dmRmMoEREaY+7Yu1fYNlzLr8Oup47jiO6l9PZLaX6CaVo9VLJpxETNQXHr6hoIJ1EKWbeeuaueWIJsQZkYwrrrJLI50VM6QtpaZpPBkUQO6xo5ubU9ck8VfLlN8f3PGe1VfrJUz71vwnBTWqhjHM0GJksriOuTJI8a9hrVcfkx9kTBGc7rzm5mZbI7vabHWi2261zgmGaqDGyPllbzPa1sjA1p4FxOoOgRm9sCASev8AKdE49kf1BbJdJl5gKjpo6WnwTYYoom7rGMtsIa0DmAAboAvt0i4I7TrJ9XxeShjWu49kf1BOPZH9QWyj0i4I7TrJ9XxeSnSLgjtOsn1fF5KGVrXceyP6gnHsj+oLZR6RcEdp1k+r4vJTpFwR2nWT6vi8lDK1ruPZH9QTj2R/UFso9IuCO06yfV8Xkp0i4I7TrJ9XxeShla13Hsj+oJx7I/qC2UekXBHadZPq+LyU6RcEdp1k+r4vJQyta7j2R/UE49kf1BbKPSLgjtOsn1fF5KdIuCO06yfV8XkoZWtdx7I/qCceyP6gtlHpFwR2nWT6vi8lOkXBHadZPq+LyUMrWu49kf1BOPZH9QWyj0i4I7TrJ9XxeSnSLgjtOsn1fF5KGVrXceyP6gnHsj+oLZR6RcEdp1k+r4vJTpFwR2nWT6vi8lDK1ruPZH9QTj2R/UFso9IuCO06yfV8Xkp0i4I7TrJ9XxeShla13Hsj+oJx7I/qC2UekXBHadZPq+LyU6RcEdp1k+r4vJQyta7j2R/UE49kf1BbKPSLgjtOsn1fF5KdIuCO06yfV8XkoZWtdx7I/qCceyP6gtlHpFwR2nWT6vi8lOkXBHadZPq+LyUMrWu49kf1BOPZH9QWyj0i4I7TrJ9XxeSnSLgjtOsn1fF5KGVrXceyP6gnHsj+oLZR6RcEdp1k+r4vJTpFwR2nWT6vi8lDK1rddOvzd9X82ats7N/Zyv8ARm2XyrvGFxIPRtgrKhz4JI+Y9BLtegyaE6Obw103muA0U3uLMl8qMb2Sow9ifLzD9dQVLS2SKS3xfKCAC0jrEEEKEfbg2ebds2Z4VeDsPzSyWC6UjLvahKS58MEj3sMLnfrFj43AH2pbqddUXMTd5R5qYUznwBZ8xcF1noi13inE0e9oHxOB0fG8fqva4FpHZC9io1uRvzDuVXase5Y1lXv0VBJS3igiI4xuk3o59O8dyE6dY69lSTVEgihfKToGjUnvIaoONMxMC5c2w3rHuLrTh+h3xGKi41bKdjnkEhrS8jecQCdBx4FW26tTZU7umFvpX/8AxQt7Uef2KNoTNy94wu1zqX2uOrlp7LRPf+To6JryI2BvMHEaFx67iT2Fa2C03iqDDT2usl6IA5m7A528CNQRw4oan26tTZU7umFvpR+xOrU2VO7phb6UfsUCPStintbuv0KTyV9YcGYyqdfQ+E7zLpz7lBK7T5Goqenq1NlTu6YW+lH7Fy3bS2VXuDG56YV1cQBrWaD5SFA10hY8PAYKv31bN5K+dfgrGtqt77rdMI3ujoY3Br6mot80cLSSAAXuaGgkkDnQbHWF8Y4UxtaIb/g/EVuvVtqdTFV0FSyeF+h0Oj2EjgdQewQqyoMuT5z7xXlHtAYcw5SXCeTD+MbhBZrjQF/5Nz5ndDimDes5j3NOo4lu8OvwnMbxaD3kHKIupexp0c4A6aoOyLzmJ8x8AYL3em/G1hse+CW/hK4w02oHPp0Rw1X6MOY3wdjCnNXhTFVpvMDToZbfWxVDAexrG4hBW0XAc08xXKAiLqXNboCdNeAQdkXncS5iYDwYAcXY0sdkDvzTcbhDTb3vdEcNV9sN43wbjGndVYTxXaLzCw7rpLfWx1DQffY4hBXEXUPa4kA8Rzrsg4KjF5Z79Jyr/h3f+9KpOioxeWe/Scq/4d3/AL0qJVoeSV9lBVfBmt/yQqZlQzckr7KCq+DNb/khUzKEEREUXR67ro9BroZ9evhmB8J7n41IpkuTV9hzgb9+4+OzKG3Pr18MwPhPc/GpFMlyavsOcDfv3Hx2ZGYygRERpAlt8ey6zJ/mjP8ABGpAuSA9jpiD4W1PitMo/dvj2XWZP8zZ/gjUgXJAex0xB8LanxWlRn1nWiIjQiIgIiICIiAiIgIiICIiAiIgIiICIiAiIgIiICIiAiIgIiICiD5YQa5+4S7+FWeNTKXxRB8sJ6/uEvgqzxqZBX+Rt9cfH/8AJKfxgKVW4foM/wDDd/ZRU8jZ64+P/wCSU/jAUrFWzotNJF7du78qDWdqdBVy8eHRD/dbAGyBTW+o2XsqqgQRPd0p20F5YNdRTtB/3UD2ZOCrzlxj/EGBcQQdCuNjuM9FO3Q6FzHkbzdedpABB64IKv1l/wAoztK5aYLsuAcL3Swx2mw0cVBRtltTXvEUbd1oc7XidBzonXacn0JSf/Aj/pC4FJSj/wBiz+kKFf01Laz92MN/U7fKT01Laz92MN/U7fKQ1NT6FpRxEMf9IWKnKdUsPUe4sc3dbuVdsceA5vRsKwB9NS2s/djDf1O3yl4nOLbz2hM88DVuXWPLtZ5LJcHwvqIqW2the4xSNkZ6vUkaOY08ELXgtmT2RWWPwvtHjca2IW/mj3lr8bHGEbzjPacy5t1lpXzPo7/SXOoLRwip6aQTSvPYAaw/GQOutgdv5o95CPlVVMFJTy1NRMyOOJpe97yAGgDUklRM7ZfKW4vxZf6/L3IC9SWbDlE8089/pju1VxeDo4wO54oteYj1TtA7Vo4HKrlQc3K/LPZzqLHZazoFxxrVtsu806OFKWF9QR77QGH+Kogcpcs8QZxZkWDLLC7W/hG/1baaN79SyJvO+R2nHdawOcdOs3slCvN190ud1qpK6519TWVEzi+SWeV0j3uPEkuJ1J66/Vh/E+JMJ3KC84YvtwtNfSuD4amjqHwyRuHXDmkEKdrI3Yk2f8lMP0tvtmB7ZebtHGBU3m60sdTVTv8A1iC4ERtJHBjNAOHOeK83tIbAWSGdOGK19iwra8LYraxz6G7W2mbTjounBszGACVhPA6jeGuoIROWN+w7ykl7vd9t2Ue0DcYqiWuc2mtGI3hsbnTE6MhqtNAd7UBsg0OvBwOu+pMY39EYHjrrWrxPh284IxVdMK3mB1NdLHWy0NVGHa9DnieWPAI4HRzToR3ip2NhTN6uzp2aMK4pvNT0e70LH2e5SFxc589OdwPcT+s+Pobz33lFlX5qaiKlhfPNI1kcbS97nHQNaOJJPW4KJ3bM5S7F2Jr5XZdbP15ks9go5XQVOIKc7tVcHg6O6A7nii11AcNHu5wWg6HK/lOs4bhlZs21VosdXJT3PGtY2xMljOjo6ZzHSVDveLI+hnr/AJXgoeMpstcQZw5jWLLbC8etxv1W2njcRq2JgBdJK7/wsY17zpx0adOKFrzlyu10vFXLcLtcamsqZnF8s1RK6R8jjxJc5xJJX6bBijEmFbnDeMMX2vtVfSuEkNTR1D4ZI3dkOaQQp2MjNiDIHJPD1FRUGB7ZerxFGPRV5ulKyoqZ5SBvOaXg9DaSODW6AADnOpPm9pLk/wDJPOvDFc7DeFrZhTFzYnSUF1ttM2na+bTg2oYwASMPAE6bw5wecEnLHPYX5SK94gxBbcntoC4xTT3FzaW0Yje0Mc+cnRkNVpwJcSA2Th6rQOB1LhJg17XgFrgQRqCCtafENgvODcSV+G75SyUd0s1ZJSVUDuDoponlrmn3iCp4Nh7N6uzr2bcJ4uvNS+ou1PA613KZ51dLU07uhukd33gNf/qRYvyVGLyz36TlX/Du/wDelUnRUYvLPfpOVf8ADu/96VCrQ8kr7KCq+DNb/khUzKhm5JX2UFV8Ga3/ACQqZlCCIiKLo9d10eg10M+vXwzA+E9z8akUyXJq+w5wN+/cfHZlDbn16+GYHwnufjUimS5NX2HOBv37j47MjMZQIiI0gS2+PZdZk/zNn+CNSBckB7HTEHwtqfFaVR+7fHsusyf5mz/BGpAuSA9jpiD4W1PitKjPrOtERGhERARF8aqqgo4JKiolbHHG0uc9x0DQBqST1gg8/mFmPgvKvCtbjXHuIKWz2a3s356modoB2GtA4ucTwDWguJ4AFR/485Y7DtvvktJlxlBW3i2RO0bWXS5NonyHstiZHJo3sEuB7ICxZ289rG57RWaFTaMP3SQYGw1O+ntMLHkR1crdWyVjgODi7iGHrM05i52vjtnvY0zt2kqG43fAFooqa024FhuF0nNPTzT6A9BiIa4vfxBOg3QCNSNQES1Jrs28pjk7nfeKTB+KaCfBGJa14ipYK2dstFVSE6NjiqNG6PPDRr2s1JAaXHgsxmPEjd5vMta/GWDsV5cYruGDsX2uotF8s85gqaaUaPieBqDqOBBBBDgdCCCCQQpgeTW2qq7PLLmowBjS4moxdg5kcbp5HEyV9AeEc54cXtI3HnifzHE6vQlZooiIoiIgLjXRcrwudWbOGck8sr7mZimdzaGy0xmDGfnTynRsULetvPe5jRrw1cNeCDzW0JtT5RbNeH2XfMS9v9F1QPoG10bWy1lWQdDuMJADRrxe8taOA11IBwhquWblF1eyiyI3raJCGPlv+7O6PXgS0QFoOmnDePvrATOLN3GGeGP7rmHjatdPXXOXVkW8eh0sIPqIYx1mNGgHZ4k6kkm6tn2AtpS9ZQyZyUOEIvwf0D0bDa3S6XOoptNejRwacRpxDS4PIBLWnUAktS17Nm2Vk7tN0UseC6+pob3Rx9Fq7LcWtjqomagF7dHFsjNSBvMJ01G8GkgK/C1s8vsfYrytxla8d4Kus1tvNmqW1FPPG4jiOdrgPzmOBLXN5nNcQeBKn72bM8LHtCZQ2LMuzObHJXQ9DuFIH7xpKxnqZojx14OBLdeJaWnTihF0UREUREQF1e4MaXu10A1Oi7LEzlDdqqbZ2yvZZMJVzWYzxXv09uLXeqo6cN0lqtOy3VrW6/rOB4hrgg+20zyiWTGz3cqjCFOypxZiynb+Vt1ukY2Klfw0bUTklrHaH81oc4dcDUFY94V5Za3VN6hhxrkpUUFqe7SWott4bUzxjsiOSOMO/rHx8yjas9nxRj7FFPZ7NR1t7v8AeqoRwxM3pZ6qd7uyTq4k8SSeyTorx577Eme+z3hO241x3ZKKe0V4Yyea3VBqBb5Xfmx1HABpJ1Ac3eYSNN7UjUztTe5RZx5e54YPpsb5b4ghutsn9Q8t9TJBKAN6KVh9VG8aj1JA4EEaggr2ygS2Ltpy87NObdFdpayY4UvT46LEFIHHcMGujZwOPq4id8acSN9uvqlPJbbhSXWgprlQVDJ6ariZPDKx282Rjhq1wPXBBB1Rp+lRB8sJ6/uEvgqzxqZS+KIPlhPX9wl8FWeNTIK9yNnrj4//AJJT+MBSukajRRRcjZ64+P8A+SU/jAUrjyQ0kdZBjftLbCGTu0tXdMV8bVWLEjYhELvbd0SStH5omY4bsoHWPB2nDe0WOvpM2DOdueV5Hv2WLzi+W2Tym1/y9xvccrMiqWgfWWaY0tzvdbH0ZjKhuokhhj/NJYdAXu1GocAOAccXhynW2AOfMG3/AFJSeQicMpfSZsHd3O8fUsXnE9Jmwd3c7x9SxecWLXpne2B3Qbf9SUnm09M72wO6Db/qSk82hjKX0mbB3dzvH1LF5xcjkZsGAjezyvRGvMLNEP8A/YsWfTO9sDug2/6kpPNrlvKd7YAcHHH1ucAeINkpeP8A0IYlM2btjvKPZio5zgehnrLxWsEdXeLg8SVUrRx3G6ANjZqNd1oGp011IBV9ANAB2FgdsO8opWZ7Yliyozat9FQYoqInyW24UYMdPcCwFzonMJPQ5d0Fw0Ja4A/mkAHPEcQCio5uWVtNwnwTlxe4o3Gio7nX00zgODZJYonR6++IpPkWJvJr4psWF9rTC5vskcbbpBVW2mkfwDKiSI7nHrElu4O+9Su7YuRI2hcir9gOl3G3ZgZcLPI9wa1tbFqWAnjo1wLmE6cA8njooE6yjxDgrEclDXU9baL1Zasxvje10U9LURv0IPXa9rh740RK2WWua4atOo7K4mIDCXHh11FtkXyutZYLBTWDPPBVbeaikiEYvFmfGJqjTgDJBIWs3tNNXNeAT+qF5zaP5VjE2YuG63BmTeGavC1HXxmCoutbOHVzonAh7Y2RksiJB0395x0PDdPEFYw7YOJrJjDadzIv+Huh+gJ75LFE5hBZK6JrYnyAjgQ57HO164Oqkz5JC019BsvV1ZVBzYbliqtqabXmMYgpoyR/rjePfBURuAMCYpzQxna8DYPtstxvN5qG09PCwa6k87nHrNaASXHgACeC2DMg8qbVkjlDhnLC0OD4rJRNjllGv5aocS+aXj7aRz3adYHTrIk7YW8snbq2TLnL26sBNLBeqqnkPWEklOHM/wBopPkWHvJxYmsWF9rnB9RfpoYIq5lZb6eaVwDWVEtO9sY1PXc78mOyXgddS1bYGRbdobIu/ZfQFjLpuCvtEjtNGV0PqowSeYPG9GXdYSEqBGvoMRYHxLPb6+Gss97slZuSMcXRT0tRG/vcWua4agjrjgeuh62VmHVoOmnBJHtjYXvOgA4lRaZHcrrW2GwUthzxwVXXqppIxH+GLO+MTTgcAZIHljd7Tnc14BP6oXmNpTlU8UZlYcr8FZOYbrMK0FyjNPU3SrqA6udC4EOZG1mrYSQdN4OcdNdNDoUVi/tZYmseMNpHMTEeG5op7bWX6pME0ZBbKGu3C8ac4cWl2vfUo3JO2+so9lk1NSwiOtxDXTU5P6zAI2Ej/Uxw+JRA5e4BxXmljW04BwXa5bheLzUNp6eFg5ied7j1mNaC5zjwDWknmWwfkZlZa8lsqsNZaWiTosNjoGU75t3dM8vPJKR1i55c749ESPeFRi8s9+k5V/w7v/elUnRUYvLPfpOVf8O7/wB6VCrQ8kr7KCq+DNb/AJIVMyoZuSV9lBVfBmt/yQqZlCCIiKLo9d10eg10M+vXwzA+E9z8akUyXJq+w5wN+/cfHZlDbn16+GYHwnufjUimS5NX2HOBv37j47MjMZQIiI0gS2+PZdZk/wAzZ/gjUgXJAex0xB8LanxWlUfu3x7LrMn+Zs/wRqQLkgPY6Yg+FtT4rSoz6zrRERoREQcEgcSsR+Utz4fk/kDU4fs9aYb7jhzrRSmN4bJHT6a1Mo6+gYRHw4gzNPWWW7yA0k9ZQmcp1nAczNpSuw3QVfRbTgambZoGtPqfRJ/KVLvfD3CM/wAEIMccqsur5m1mNh7LfDkJkr8QV0dJGdNehNPF8h7zGBzz3mnnWwrlXlnhfKTAFjy9wjQMpLbZaRlNGGtDTI7nfI/Tne95c9x67nE9dRq8kFkxHeMVYpzyu1I10NkiFktL3s3gKmUB872nrObH0Nuo607lKuOZE75R08rVs80t4whb9oPD9CxlwsEkdsvZaNDNRSu0hldw4mOUhnZ0m7DdBgfsf5zVGRO0DhXG7qkQ2yWpFsu28SGuoaghkjnac4Yd2QDsxhTu5pYGtuZOXWJMCXdrTS3611FA8uaDuGSMtDx32khwPWIB6y1z8S2CuwtiS54YucRjrLTWzUNQwt00lieWOGnvtKF7bKtNPHURNlikD2uaCHDmII1BX1ViNiHM85s7M2CcTVVWJ7hBQ/gyvO9q7o9MTES7vua1r/8AWD11fdFEREBRScrpnjJeMW2PIez1utHY2tu94aw8HVUrCII3fuxuc7Tm/KjsKUfE2ILbhWwXLEt5qGwW+1Uc1bVyu5o4YmF73fEAVrpZt5h3TNfMvEuY143xVYhuU9c5j3l3QmvcSyIE9ZjdGjvNCC+fJ6bOcW0BnpTSYhoW1GFsJtbdrq2RpMdQ4O0gpj1jvv4kHnYx6nHZTRMg6AxpDAN0DsDse8sTuTNyYZlZs42zEFdSdBvGOH/hypJ03vQ7xpSt97oW6/TrGQrLhExCVylWz1Bktno/EmHLf6Hw5jlkl0pmNZuxwVYcBUxN/wBRbIBwGkug00Vy+SMzrlw9mRfMk7lVkUOKKc3K3Rn80V0DfygHffCCT/BCyx5TrKYZk7M9zvtHRumueCp473AWD1Qgad2pHvCJznkf/LHYUPuTOYdZlPmthTMajkmabBdqetlbE7R0kLXjosfvPj3mHvOQ6bHQOoBXK/Nba6mudupbjRTNlp6qFk0UjTqHscAWkd4ghfpRRERB8qqdlNA+ole1jIwXPc46AAc5UAm2PnlUZ/5+4kxpFVdGs9NMbVZGgktbQQOcGOaDzdEcXynvyEKXDlAs4JMn9mTE9xoap9PdL+1thtz4zo5stQCHuB6xETZXA9YgKDzBeFbpjnGNlwZY4DNX3uvgoKdoGur5Xho+Ia6nsAIlviSfkltnGngtNftGYmtzH1NY99sw6ZWh3Q4WHdqKhuo4Oc/WIHgQGSDmdxkGzDwLh/MfBt3wPia3srLZe6WSjqYnt3vUuGm8NeZzToQecEAjiumV+BbTlll9h7AFjiDKKwW6Cgi9SGl+4wAvcB+s46uJ65JPXXqUJMa4mcWWt4ydzQxLlremPFVYK+SlD3cDLH+dFKOwHxljx3nKXXkv865c0NnqDCt1qei3fAtQLPKXv3nvoy3fpXnrgBu/GP4Kxh5X7KdlkzCwtm/baNjIMRUj7VcHsbprVU5Do3uPXc+OQtHegHeXh+SkzQlwZtIOwRUSbtFja2TUgYToDVQAzxO+Jjaho78nfQkTOKIPlhPX9wl8FWeNTKXtp1GqiE5YT1/cJfBVnjUyKr3I2euPj/8AklP4wFKvXOLKOZ7edrCR74UVHI2euPj/APklP4wFKtXjWinAHPGf7IVrS3erqrjdquurqh81RUTvkllkcS573OJLiTxJJUjeRPJYZcZsZP4RzJu2ZmJKOqxJaKa5S08FPB0OF0rA4sbvNJIGvOSo3qsEVczXgtPRHAgjm4qYzZm239l/L/Z5y+wlizNagorxabBR0lbSehaiR8MzIwHNO5GRqD2EZkeQ9Juyn7rGK/o1N5K+zeRzyaDQH5m4xc4DiQylAJ+bV8/TFdjzux0f1dWeaXyl5RzY6hcGnN+B2o11Zaq1w/2hRpZNvI55L6guzMxjp1xpS6/4lZ/bA5OfKnZ4yLvOaOFsX4nuFxt1RRwx09a+AwuE1QyNxIZGHagPJHHnWZPpkOxx3XWfVFd5lY+7dW2rs3ZxbN+JMvsvcfm632unoX09N+C6yIPEdVFI8h8kTW8GtceJ6yJUf2y5UTUu0flhNTyOjeMXWkbwOh0NVGCPjBWw40ANAHYWu/sxtLtovLEAa/8ApdaPG41sQN/NHvIRw5ocCD11iptZ7AOW20pUOxXQ1JwzjMRhhusEe/HVhoIaKmLUb+g0AeCHAAD1QAasq3uDGOef1RqsE9sblK7Lkzd6zLbKKiosQYrpCYq+tneXUNukHPHo0gyyjXi0ENadQSSC0FYZY25MHawwrXOp7NhW14optTu1VsusEbSNeGrah0bwfiI76qWXfJY7T2Lq1jcWUFmwbQ7w356+4R1Mhbr6rcjpjJqQOOji3XshWlxttobUePq91fec68UUpJOkNqrn26FuvYjpyxvxkE9klfuy+25tqbLmrFRbc4L7dYiQX018qDcYngHiPy+8Wg9lpae+iSYlw2WdjDLHZetsstiZJeMS1sYirr7VsAlezXUxRNHCKPXQ7o1J0G8ToNMhANOAWHextyheE9oueLAmM6Kmw3jhsZfFA2Q+hbk0Al3ocu4h4A1MbiTpxBdo7dzEB1GqK4c0O5+ssWNq7YDy02lZ3Ypp6k4Yxi1gYbtTw77KprRo1tTHqOiaDQB4IeAANSAGjKhxDQXHmCwO2xOUvs2T91rct8n6Civ+KqNxjrrhO4uorfJxBjAaQZpR1wDutPAkuDmgMOMc8l/tX4UrXQWLDNqxVTakiptl1hjGnW1ZUOifr8RHfX7sveSy2ocW1LTim12fCFG0gvlr7jFUSFvX3I6YyanvOLR31abG22htSY+r3V96ztxTSk6gQWqvfboAOP8A7OnLGn3yCe+qll5t17U+W1Y2qtubl6u8IcHSUl9ndcopAP1fy5c5oPZY5p76JiWvZZ2LMrtmG3ST2KOW8YlrIxFXX2rbpNI3UExxN1Iij1AJaOJ0bvF26NMhtNFiFsb8oFg7aOkbgrFFFDhzHLIi9tJ0QmmuAaNXOp3O47wA3jG472mpBeGuIy+RXBUYvLPfpOVf8O7/AN6VSdFRi8s9+k5V/wAO7/3pUSrQ8kr7KCq+DNb/AJIVMyoZuSV9lBVfBmt/yQqZlCCIiKLo9d10eg10M+vXwzA+E9z8akUyXJq+w5wN+/cfHZlDbn16+GYHwnufjUimS5NX2HOBv37j47MjMZQIiI0gS2+PZdZk/wAzZ/gjUgXJAex0xB8LanxWlUfu3x7LrMn+Zs/wRqQLkgPY6Yg+FtT4rSoz6zrRERoREQeUzUxxbctsuMS48u0m5S2G2VFe/v8AQ2FwaO+SAB3yFrnYivtzxTiG44kvNSam43ermrqqY88k0ry97vjc4lTCcq9mWMHbOjMGUtYyOtxpc46F0X67qSLSaZw/1Nhae9IoudmLLc5uZ+YIwDIwuguV3idVaDX/AIaLWWbX/wAuN4RNTT7EGVLMn9mjBmGpYSy4VtELxcd5m6/0RVflS13/AImNcyPjx/JhX3XyghZBG2KNu61oDQBzABfVFdXjVhHZUG3KR5cuy82rMSzw07IqLFEMF/pQzm0laY5Se+ZoZT/qHZU5RUZXLJYCi3cvMyoYdHA1lkqpdPztQyaBvxblQfjKCq8jjmEKjC2Pcr6l/G3VlPe6UE8XNnaYpdB2AYYvjepIVCdyWmNX4U2rLdZnT7kGKbTW2pzSdGlzWipaff1p9P8AUpsUSXREXB5iisRuU9zTOXezDc7NSShlfjKrisURDtCIX6yTnTrgxRPYf4gUP+S+XVZm3mvhXLeia4vxBdaejkc3njhc8dFk/wBMe+7/AErMLleMzHYgzjw7lpTy70OFLUaqbddw9E1TgdCOyI44yP3yvz8kflb0zZ3XnMmso2S0uD7WY6eQj/l1lVqxpH/kicfGETUulnttFZ7TRWm20zKakoqeOnghY3dbHGxoa1oHWAAAX7FwOYajTvLlFUnFmHLfi/DV1wtd4ui0N3opqGpZ7eKVhY4fGHFa32MMN3DBuLLzhK5EtrLHcam3T8OPRYZDG/8A6mlbK6gr5RvA02CNrTGJFIIaS/GnvVKWjQSCeJpld8+JvkRLNSo7BWYL8x9lTAN3qKgTVVut34GqDrq4PpHugG93yyNjv9QWQajs5HLHMdbl7jjLuSQma1XeG6xgnmjqIRHoO9vUxP8AqUiaKIi+VRI2GJ0r3BrWNLiTzAAIIouWAzTfeMw8K5R0NW802H6F91ro2u9Sampduxhw9s2KLUd6Y9leE5KfKYY62iZMcV1M99Bga3vrGv09R6Mn1ihB7PqOjuHfYFj/ALT2Zb83c/8AHWP2VpqaS5XeZlFIf1qSHSGnI7H5KNnyqUTkoMr24N2dZMcVMBbW42uk1YHubo70LB+Qib728yZw70iJjNgDRcoiKxT5S7LgY92VMQVlNRGorsLVNPfaYNbqWiNxjmPvCGaVx/d16yhrykxo7LjNPCWPWueBYLzR18m4dHOjjlaXtGntmbw94rYezDwtTY3wHiHB1YdIb5a6q3SHTmbNE5hP/Utb+8W2os93rbRVsLZ6GpkppW6cQ9ji0j5QiVssWyrhuFBBXUzg6KojbLG4cxa4Ag/IVEbywnr+4S+CrPGplIxseY2dmDsyZd4nmk355bJDSzu111lg1hefjdGT8ajn5YT1/cJfBVnjUyLFe5Gz1x8f/wAkp/GApXJGb7C3sqKPkbPXHx//ACSn8YCldJAGpQQ67a3J85o4JzBvWPspsKVeJMI3mqfXCmtVOZqm2vkdq6IwM1e6MEndc0EBo0dppqcVjkRngP8A3N458Hqvzanuzi2gMn8ibZHdM08aUFlbUA+h4ZA6SoqAOfoULAXv01Gpa0gajXTUKyXpoGxt2+3PwfrfNoIffxEZ4dxvHHg9V+bT8RGeHcbxx4PVfm1MF6aBsbdvtz+oK3zaemgbG3b7c/qCt82gh9/ERnh3G8ceD1X5tctyHzxe4NGTWOdSdP8A1eq/NqYH00DY27fbn9QVvm1yzlPtjd7gwY+uI1PO6wVug/8ApIMXuT82Bcw6LMK0515y4dnsFBYnistFqrmFlVU1Q16HLJH+dE1h9UA4BxIbw055UmjRoB6wXjcr838tM48PtxPlpi6332gc7ckfSv8AVwv013JYzo+N2nHdcAdNF7IEEAjroMc9vTPa4ZB7Pd5xFYJzDfrxIyy2qVum9DPM1xMw167GNe4cCNQ1QbYbw7iDHeKLfhrD9FPc7zeqtlNTQt9VJPPI7QcT2SecnskngpN+WYkrhhLLSGMu9BuuFxdKATp0QRQ7mvW10MmnvlYtcmVT2Ko2usMi9CN0sdHXS0DXgHWpEJA0B6+4ZD8SM1mNkbyTWUVlsFLW503GvxPfJYQ6ppaSslpKKnef1WGPdlfpppvOcNePqRzLzu0fyT+DThutxLs/XCuoLtRxmSOx11QainqwASWRyP1eyQ6cC5zmk8PU66iR8ADmAC6y6Bh4I01pqCvvuD8QwXKhlqrXeLNWCWN41jmpqiJ+oPZa5rm8x4jTitgLZVzg/HtkNhTMqYBtbcKQxXBgGgbVwuMU2g6wL2Fw/wDC5qhT2zqaw0u1RmZDhncND+HpXHof5onc1rpwPemMg99SUckXJcX7MVzbWb/QI8W1jaYu1/5foalJ0728Xf7ok7XS29s9K3IPZ5vGIrHVinv16kbZLS/U70c8zXF0rdOZzImSvaebea3XhwUGVhsV/wAc4nocPWSkmuV5vlbHTU0IO8+eoleGtGpPOXO4knvkqUPllZK0ZfZdRt3hSOvFY5/Y6KIGhnx7pk/3WJPJp09pqNr/AAj+FN3fjpri+kDwCOjikl7PXDDIffCJ6zOyO5JnKSzWCkr86rhcsS3ueIOqKSlrJKSjgceO60x6SPI5t5ztD7ULze0jyTuEOluuxNs9V9xorvRRGZlirqo1ENYGgkxxyv8AVskPW33OaToPU86kgYAGDTTTThojwC0g9hGmtPZbzf8ABOJaO+WasqbXeLLVsqKeaMlktPPE/Vp7IIcObvaFbA+zLnBBntkphbMyNkcVRdKICuhjPqYquNxjmaNeOge12mvW0UI+2HBaabafzLisjGNpBiKqIDOYSF2sgHvSF6k55JiSsfstSMqC4xR4krmwa827uxE6d7eLkSM0SoxeWe/Scq/4d3/vSqToqMXlnv0nKv8Ah3f+9KhVoeSV9lBVfBmt/wAkKmZUM3JK+ygqvgzW/wCSFTMoQRERRdHruuj0Guhn16+GYHwnufjUimS5NX2HOBv37j47Mobc+vXwzA+E9z8akUyXJq+w5wN+/cfHZkZjKBERGkCW3x7LrMn+Zs/wRqQLkgPY6Yg+FtT4rSqP3b49l1mT/M2f4I1IByQZ02c8QE9ttT4rSoz6zs3m66ahAQeIOqia279ubPzC20BfMsst8Uy4Xs+FpIqYClp43TVcroWSOkkc9rjpq/RrRw0AJ1J4Zp7Au0PiPaOyJixRjJsDsQWi4zWe4VELAxlW+Nkb2zbg4NLo5WbwHDeBI0BABpkmuCdFyvhWyxwUss8rt1kbS9x7AA1KCH/lcMymYnz+tOAKaRr6fB9nZ0QA8W1dURLJ8XQhTKt8j/lmL7mnizNCria6nw3a2W6n3m661FU/Uuaey2OBwPel76w8z/zBbmpnVjbMOKV76a+XmoqKQv4OFIH7sDT70TYx8Slu5LjLNuCNl233+ppDBXYvuNTd5N4aO6ECIIh7xbCHj989lEnbMFERFFiRyouD24n2S77cxTdGmw3caC6RaDUtJm9Dvd8TKhxWW6tttH4aGMMh8wcNCETSV+G6+KFmmus3QXGP/ra35EEDuzvi3pEz4y/xa6cwRW7EVDJO/XTSAzNbL8sbnj41sUQvEsTJAdQ4arWWaS2XUbwc1w4jnB1H+62PcosTxY0yuwji2F4cy8WSjrQddeMkLXH/AHJRJHr185pGQxOlkIDWglxPWHZX0VmNsPMs5T7NuPsXQVTYKyOzy0dE/Xi2pqSKeJw7JD5Wn4kVCHtJ5j/jaz1xrmBHVPnprrd6h1E53OKRjiyAadbSNrBopVuSpy2ZgvZpjxTPSujrcZXKe4vc4aOMEZ6DCPe0Y54/iKGm22+svd1pbZQROkq6+oZT07ANS+WR4a0DTrkkDTvrY3ypwVR5cZc4ZwFQP36fD1ppbbG/TQvEUYZvHvnTVB6xERAUVHLIYO9C42wBmBG0btfbam0SkcwMEglbqe/6Id8ilXWDHK64NF62drPiiJvq8O4hge93YimjfE7/AKjGgxZ5I7GT7FtF3XCsku7BiSwTNDdeeWB7JG/I3ovylTGDmUA+w5i2TBu1dlxc2ndbV3hlsf8Au1TXQcfnB8in3ZxaCia7KzO2JmS/KjZvxzjGmqhT1sVrkpKF+uhFTPpDGR3w54d8SvMo7OWGzKfbMv8ABeV1I8799uMt2qd12m7HTMDGNPec+Yn/AMtCosLPa6u+Xajs1DE6Wpr6iOmhY3iXPe4NaB8ZC2NsqcDUWWuWuF8BUJDosP2mltwfpoZHRRNY5577iCT76hM5PfLeTMrarwhTyUzZaKwSvvtYHDUNbTjWP/6xi+VTusADABpp3kI7IiIrpIA5uh148Fr+bZuDocA7UOY+Hadm5E29y1sYHNu1LW1AA97ounxLYFKhp5WjCMNj2mKTEFPTljMRYdpqmV+nCSeKWWF3yMZEPkRKy55JTGE9+2a63D1VP0R+HMQ1VNCzXiyCVkUreHY33y/7rGHlhPX9wl8FWeNTL3HIz3ysZdMzsOEPdSSU9srG8PUska6dh49YkPH9C8Pywnr+4S+CrPGpkVXuRs9cfH/8kp/GApWamToMD5faDVRTcjZ64+P/AOSU/jAUq1w/Qaj+G7+yDXg2hM4sQ56Zt4hzCvtZUSiurJW0EErtRSUYeegwtHDQNboOAGp1J4kr81m2fs9cQ2ulvdhycxrcbdWxNmpqqksVVLDNG4atex7WEOBHXBXh6vUVU2h0/KO/up/9jJjRsrZWg8f/AEXoOJ/hBGeUIvUzbRncJzA8HKzzadTNtGdwnMDwcrPNrYi3W9hN1vYQytd3qZtozuE5geDlZ5tUrE2SOc2C7RLiDF+VWLrJa4HMZLWXCy1EELHOcGtBe9gA1JAHHiStjfdb2FilynkTX7HeLDvbu5WWt3vj0dCP/uhyjH2DM28R5V7SmEI7TVy/g7E9xp7FdKTfPQ54aiQMa5zeYuY9we08+o05iQZ5WnVoPeWu9syeyKyx+F9o8bjWxC380e8ixi9yiuSFzzs2dbnBh2idVXvDE7b5QwxxF8k4ja4SxM04kujc4gDnc1oUJ+CMaYhy6xhaMc4Urn0V2slVHWUkzdDuSN7I5iCNQQeBBPWK2T5o2SxujeNWuGhB64Ub+2TyYtTi+/XDM3Z8bR09wr3uqrhhyRwhhllPF0lM8ndYSeeN2jdSSC3TdIsXXyL5T7IDMDD1LHmPexgnETIw2qp62N5pHvA4uinaC3dJ5g8td1tDpqfO7R/Kk5SYQwzW2jJK5HFmJ6hjoaepbTvZQ0biP+a57gOikdZrNQSOJCi1xnknm7l3Uvpcc5a4jsr2uLQ6st0kcbtDpq15G64a9cEgqo5e7OWeWaVVDTYHytxFdGyvDPRLaJ7KdhPMXTPAjaPfcETl4maS+YuxBJUTvqbnd7zWGR7tC+WpqZX6k8OLnOe7rc5Kn22PsmqjIjZ9wrl9cQ38JwwOrbkRpwq53GWRnDgdzeEYPXDAsdtijk4qDJa60uZ+cM1Hd8YQ/lLfQQ6vpbWSPz94/wDNnA4b2m63jugnR4zuaxrButGgRpjJyiGR9dnhs6XKisNE6qvuGZ2362wsBL5nRNc2WNoA1JdFJJutHO5rAoS8FYuxDl1i+041wxVuorvY6yOtpJfayRu10I67ToWkcxBIOvMtk6WJsrSx+paQQR2VHHtlcmVPjW/12Zmz9FR0lyr3mouOHpXNhhnlJ9VJTvOjWOPOWO0aSSQW8xJV0sjuU/yBx/YKRmYt9GCsQNjDaqnrYnmle8Di+KcAt3SeYP0cOwedeZ2l+VIyqwnhiusmRdyOKcUVMToYK1tO5tDQuI/5pc8DopHOGt1BPOQOBi6xpkjm/l3UPpccZa4jsrmu3Q+rt8jI399r9N1w74JCqGX+zlnnmjVw0mBcrcR3MTPDPRDaJ7KZhPt5ngRsHfLgicvEbt7xVfA1vom43W7VQaNAZJqiolfw/ec5zvjJ76n82SMnZcisg8KZeVkTG3Glo/RNyLHBwNZM4yTAEc4a5xaD2GhY67EnJz0OSVzp8z83ZqO74xhbrQUULd+mtTiOLw4/8ybQ6Bw0a3jpqdHDOwANGg5kWBUYvLPfpOVf8O7/AN6VSdFRi8s9+k5V/wAO7/3pUKtDySvsoKr4M1v+SFTMqGbklfZQVXwZrf8AJCpmUIIiIouj13XR6DXQz69fDMD4T3PxqRTJcmr7DnA379x8dmUNufXr4ZgfCe5+NSKZLk1fYc4G/fuPjsyMxlAiIjSBLb49l1mT/M2f4I1IDyQQ12dMQD/+W1PitKo/tvj2XWZP8zZ/gjUgPJA69TpiDTttqfFaVGfWH/Kp4Qiw1tWV94haAMT2ehujuH6zWGmPi4Pxq+vI04umdHmPgWWb8lE6hu0EZP6zxJFKfkjh1+Jfm5ZXBrGV+XWPooPyk0VbaZ5NP1WFksY/65T8qs5yUuLnYe2omWMzFsWJLJWURZ7Z8e7M3/aN/wAqLamjVk9s7MZ2VuzPjvFVPV+h602x9BRPB0cKio/IxlvfBfvfEr2KOrliMxjbsBYMytpZBv3u4S3arAdxEVM0MjBHYc+Zx9+JFRaWW1Vd/vdDY6GMy1NwqYqWFjRxc97g1oA75IWx3lrg2hy7y+w5gO2OLqXD9rpbbE53O5sMTWbx753dT3yoR+T0y1dmVtWYPp5IWyUdge+/1QdxAbTjWM/POiCnbjbut00QdkREBfKqgjqqeSnlGrJGFrhpzghfVcHmKDW2zKw5Ng/MTE+FpmFj7PeK2h3SP/hzOaD/ALKbjk7sVNxXsjYDlMwkltdNNa5eP5pgmexoP+gM+UKKvlAsKPwltbY+phT9BguNVDdIBpoHNngY9zh/5hk+MFZ1cj3jGG55L4uwU+YuqbHiAVm6T+bFUwtDdB+9BIfjRIz7PAKPDlh8yTa8vMHZW0riJL/cpbnVEH/2NKzdawjsF8zXDvxqQ6RwYwuJ4DioQ+U4zJ6f9qe8WukqHSUeEaSCyRDe9SJWjokxA7O/IWn9xCvOcn3ls7MvarwZSTU4lorFUOv9XqNd1tKOiRE97o4hH+pTwAAcAFGVyOWWbBHjrN2ro/yjjDh+gnPNuf8AOqQPjFP8ik2QgiIiix82+sInGeyXmHbmgF9FbDdmajXjSPbUf7iMj41kGvP4/wAM0mNME37CFd+j3q21NvlOmujJYnMP+zkGuVg/EdXg3F1mxZQA+ibNcKevh09vFI17f9wtku110FzttNcaV29DUxMmjdrztcAQfkK1oq2mqbZXz0dSwsnppHxyN05ntOhHygrYI2RsXnHOzRlviN8vRJpcPUdPO7XUmaCMQy69/fjcjMXeKhC5TjMcY92p7vaqepMtJhGhpbHFofU77WmaX4xJM9p/cU1WJ79QYWw7c8SXSoZBR2uklrJ5XnRrI42FziT3gFrhY6xbccfY1v2Nrs4Orb/c6m5T6c3RJpXSEDvAu4ItSM8jdlu1zcfZtVdIdd+msFDOetujo1Q0e/v039Kk4WOHJ8Zb/i22U8EUkse7V32kdfqoluhc6qcZI9evqITC3/Ssj0IIiIorRbQWy5lRtL2ejtWZdtqZJLbI6SgrqOboNTS7+7vtY/Qgtdut1a4EEgHTUAi7qILVZBbNOVmzbh6pw/lpaJIPR8jZq6sqpDNU1bm6hu+89ZoJ0a0Bo3nEAEkqNjlhPX9wl8FWeNTKXxRB8sJ6/uEvgqzxqZBXuRs9cfH/APJKfxgKVmpjE0D4nHQPGhUU3I2euPj/APklP4wFK6QDwIQa4ucWW18yhzNxFl3iOmkjq7JXy05L2lvRo94mOVuvO17d1zT1wdVcXCG3NtT4DwzbMHYUzWqKGz2eljo6GlFtoniGFg0a3efCXHQDnJJUxufeyPkdtGMilzGwrv3OmZ0Onu1DM6nrIm8Tu77eD26kkNeHAEkgAlWEPJFbNR49MmOh/wD3Cm/7dBgG/lEdshw3RnRVtB59LTb9f8C/L6YDth9bO+5/QKLzKkG9KI2a+2XHf1jTf9uuPSiNmvtlx19Y03/bolR8P2/Nr+Rpa7O66gnnLaOkaflEK8vj/aw2h808MVWC8wc07rerHWujfPRTxwhkhjeHsJ3WA8HNaefrKS/0ojZr7ZcdfWFN/wBuuzeSK2amuBdiLHTgDrobhTaHvfo+qJyjo2I8vL/mLtOYCorHSPkbaLxTXqukDTuwU1LI2V7nHra7oaP/ABOA66n5b+aPeVrcjNm3KHZ6s0tnywwpBQGpA9GVkrnTVdWRrp0SV5LiBqdGjRo1OgGqukixyiIiupjYedo+RdJOhxt1LW6Dn16y8FnVnpl3kJgyfG+Yl6bRUUerIYm+qnqptCWxRM53vOnNzAAkkAEqIfaY5RnOjO+sq7LhC5VOCsIl7o46O3zFtXUxaEa1FQNHHXU+oYWt0Oh39NUTUrmZm1ns9ZQzTUWO80LNRV8Gm/QQy+iasa82sMQc8a98BWIu3K07LdBUugoYMYXIDhvwWlrAfikkaf8AZQ5UNvul6rGUlto6mtqp3BrYoY3SSPceYAAEkq7tj2MNqjElOKq15G4r6E8Ah1RSehtR1uEpaUOU2uQO0ZlntJYTlxblrc5p4KWb0PWU1TEYqill01DZGcRxHEEEtPHQ6ggXQWFHJpbKuYuzzhnFeIczIBbrti2Sjay1NnbIaaGnEuj5Cwlu+4zOGgJ0DBx9VoM1kWOpjYQRujiuRGwaaNHDm4L89dcqC2U0tZcauKmp4GGSWWV4YxjQNSS48ANAeKoWDcz8uswxUOwHjeyYhbSuDJzbK6KpERPMHbjjpzdfnQenREQcFRi8s9+k5V/w7v8A3pVJ0VGLyz36TlX/AA7v/elRKtDySvsoKr4M1v8AkhUzKhm5JX2UFV8Ga3/JCpmUIIiIouj13XR6DXQz69fDMD4T3PxqRTJcmr7DnA379x8dmUNufXr4ZgfCe5+NSKZLk1fYc4G/fuPjsyMxlAiIjSBLb49l1mT/ADNn+CNSBckB7HTEHwtqfFaVR+7fHsusyf5mz/BGpAuSA9jpiD4W1PitKjPqucq7g9uIdl6fEDYt6bDV5oq0OA1IZI4wO+L8qD8Si42UcYjAW0jlzid9UKeCmxDSRVMhOgbBK8RS6nsbj3KcbadwM7MfZ/x/gyGkFTU3Kw1bKSI9epbGXQ/9bWla8kMro545WOc1zHB2o4EHnRbGzSHggHXgoPOUszMGYm1TiCipal0tDhKCCwQcfU78YdJN7xE0srfeaFLba85rH1N1FnrcZ923OwpHiCfd4kf8MJXMHZdrq3TsrX8xLfrpi3El0xNeZzUXG8V09fUyHnknmkL3n43OKFSVcjllmxlDjnN6to/VTTQ2C3zEcQGtE1QB3jv0/HssUmKsJsNZXfin2YcDYfnp3w11bQC8VzXt3XieqcZi1w7LGvYz/Qr9osEREBcHmK5RBEXyweDZrXnThHG7YQ2nvlgdQ7wHPLSzOLie/u1MfyLvyPeMmWzOTGGCJHhov9ibWs/8UtLM0AD/AE1Eh+JX55X7ApvGSWF8cQRF0uHb+IZXAfm09TC9riT1tZI4B8YWBGwZjh2AdrDL65F2kFxuJs8zddA4VcboGa/+Y+M/EETMTqY0xRa8F4PvOML3UCGgstBPcKmQ9aKKMvcfkaVrjY0xPcsb4vvOMLzMJa+9189wqX+2kleXuPylTK8p7msMvtmG44epagMuGNKyCyxaH1XQCTLUHTsGOIsP8UdlRFZGZd1ObmceD8uIWvIv12p6WoLR6plPvgzvGntYw93+koqa3YEy1blhssYKtcsDoqy7Un4bqw5pa4SVX5UNI59WsLG/6VkOvz0NNDRUsVJTxtZFDG2NjWjQNaBoAF+hAREQF0kG8NNNdeC7og17NrTB3SFtL5k4aY0Rxw4iq6mBntIah5niH9ErVKFyT+M5cSbLjMPzShzsLX2ut7ATq4RyFtSNe9rUOHxLDflZMExYc2mosTU9K5jMVWOlrJpNPUvniLqcj3wyKL5VcfkcccMo8W4/y9qKr/8AUKGku1NCebehe+OUjvkSxf0ozGVfKUZlHLvZXxJSwShlXip0VggGvEtmJM3/ANFkg+MKGTKfAtbmbmbhfANv16Pf7tTUIdpruNfIA5x7wbqT7yzg5YHNM3jMTCOU1FOeg4foH3arAf6k1FS7dY1w7LY4g4HsTLxHJRZWvxrtE1GOKuiL7fgm2SVQlPMysn1ihHv7nRz/AKQi7ymNs9spLNa6S1UFOyCmo4WU8MTBo2ONjQ1rQOsAAAv2LhvMOGnBcooiIgIiICiD5YT1/cJfBVnjUyl8UQfLCev7hL4Ks8amQV7kbPXHx/8AySn8YClckO6wnXTTrqKPkbPXHx//ACSn8YClWryW0czmnQtYSD3wgix21eUjzIpcwbvlfkRd47Ha7HUSUFbeo4o5amrnYd2QRF4c2OMODm6gbziNQQOBxP6s3aqJJ/Hti/j1/Rx+xWgr5ZKi4VE07zI+SZznucdS4k8SeypUNnbk2tnbM7I3A+YGJX4n/Cl/slLX1fQLixkfRZIw5263oZ0Gp5tUSMDurM2qu7tjD6cU6szaq7u2MPpxUm3pT+y17fF/1qzzSelP7LXt8X/WrPNIqMk7Zu1SOfPfGH04rmPbR2qo3tkbnvi0lpBG9W7w194jQqTqDko9laPe6LT4qnDhp6u7gaf0xhWM22tgfIDInZ5vuY2AqC9xXigqaKKJ1TcXSx7stTHG/VpA19S4oVW9gflD8Z5i40osmM8qynrrhdA5lovjIWQySzNbqIJmsAYS4A7rmtB1ABBLtRJE06gHvLXg2Ynvj2jMsXxvLXDF9p0I5x/xca2H2/mj3kI5XlczsxsMZTYHvGYOMa8UlostM6oqJNNXH2rGjruc7RoHXJC9SToNVFVyt+0BU3XFVoyAsVW5tDaI47tewwj8rVSNPQIndf1EZ39OYmZp52hBiFtMbRuNdpfMaqxnimpfFQQl0FntYfrFQUuuoYObeedAXv01cdOYBoF2Nj7YKxTtENGO8b18+GMAU7i51aWAVNw3XaPbBv8AqWtGhBlcCAeADtHbvktiLZol2lM4ILRdmTR4UsLW19+nZqN6LXRlOHDgHSEEdkNa8jiAr48oLthur6+fZoySnZZsGYaYLXdJLf8Akm1csY3DSMDdNKePdDCBwc4O/VALjC6eINsXY92OKaowNs2ZbUWJb3TgU9XcaZzWRSPafVdFrnB8k7gdTo0FnYc1WIxFysO05c6+SWx0WELLSlxMcVPbZJXAdhzpZXAnvgDvLF7KzKHMbOvFEeEctcL1d6ub2h7mxACOFnNvyyHRrGd8njzDU6A53YD5HDEddbG1WYucNFbK13PR2u1uqWsHW/LSSM1PZG58ZRqVkpyfO2DiXaiwxiG3Y7tVJTYjwq+mM9RRxuZBVwTiTcfukndeHRPDgDofUkacQMpcSYosOErFW4lxHdqa3Wy3QuqKqqqJAyOKNo1LnE8NFYbJPI7JnYQytvlwkxGYqOTdrr5fro9jHzlmoYxrQAA0bzgyMakuefzi5Ri7aW2/iraZv0mHMPuqbPl/b6guo6DXdkrng8KioI5z7Vmujefi7iC1XtuPbxxBtB3WqwBgCpqLXl9SS7pDdWTXl7TwkmH6sWoBbH2QHO46NZ8uS9suYdftR2i8YUbVtstupKvpimaHdA9DSQPETHnmJdMIy0c+rCeZpVqdl/ZYzA2oMassGGoH0Njo3MN3vUsRdBRxHrAcN+QgaNjB49ctGpE4GR2RWX2QOBqTA2X1qFLSwflKiofxnrJtPVTTP53OOnvAAAAAAIkXEGunFcoiK4KjF5Z79Jyr/h3f+9KpOioxeWe/Scq/4d3/AL0qJVoeSV9lBVfBmt/yQqZlQzckr7KCq+DNb/khUzKEEREUXR67ro9BroZ9evhmB8J7n41IpkuTV9hzgb9+4+OzKG3Pr18MwPhPc/GpFMlyavsOcDfv3Hx2ZGYygRERpAlt8ey6zJ/mbP8ABGpAuSA9jpiD4W1PitKo/dvj2XWZP8zZ/gjUgXJAex0xB8LanxWlRn1nPPE2aF8btNHNI4rXZ2iMvn5V54Y3wCWFkVovVVHTAjT/AIZ0hfAfjidGfjWxS4agjvKInlcsoJsM5v2PNmgpmtoMXW9tJVPY0/p1KA3Vx5vVQmED+G7sItjyd52ogOTkseTsNxP4dqL/AFVinY1/qvwbA9tWSeuGn0RDEOGhDXjrKwuzFlbJnRnxg7L0wvfS3G5RyV5Z+pSR/lJzr1vUNcAeyQrXa6df3lJ3yQ2REsMWIc/79RFnolrrHYi7hvRhwdUygcxBcI4wefVkgRJykvp4mQQMhjaGsYN1oA0AA5gvouNNOZco0IiICIiCy+2Tl63M7ZnzAwsyldUVP4Hlr6SNg1c6opdKiIN75fE1v+oqAazXe4YcvVHfLXM6CutdTHV00jToY5Y3hzHDvggFbLlRH0WF8egIc0tII4HVa9W1BlRV5KZ74vwBLDJHTUVykmt7nAjolJL+UhcD1/UuDTp12lEq9XKN7Rluzzxxg+2YZro6iyWLD1NWasOv/GVsccsgJ6+7GIW6dY747K97yROVBxHm3fs166AOpMI0ApKQuaT/AMZVat3mnm1bC2UH+I1YCta6RwY0FxcQAB1+8p5Ng/IyoyI2dsP4futJ0C+XcG83hjxo+OpmA0iPfYwMYe+09lEjIlERGhERAREQR5csPl9JdMssHZkUsG86wXWa31Lg3iIqlgLST2A+ED3399YRbBWZtLlTtQYSvd0rGU1uuTpbNWSPcGsbHUMLWuc48wEgjJ7wUxm1jlP+OnZ+xlgGmphNcKy3untrS4N1rYiJIBvHmBkY1pPYJWvlNHLDK+GZjmSRuLXNcNHNI5wR1iiVcHaGzQnznzqxhmVK6ToV6ucr6Nsh1cykZ+Tp2nviFkYPf1Uq/JUZROwDs6nG1xpDFc8cV8lfvPGj/QcWsUDT3iWySDvSqJnJjK6+Zz5n4cy0w/G41N8ro6d0gZvNgi55JXafqsYHOPeC2IMH4Xs+CcL2rCGHqRtLbLNRQUFHC3mjhiYGMHyNCJIrKIiNCIiAiIgKIPlhPX9wl8FWeNTKXxRB8sJ6/uEvgqzxqZBXuRs9cfH/APJKfxgKVa4Amima0aksIA75UVPI2euPj/8AklP4wFK48bzSAg1m7hHJDXVEUrHMeyVzXNcNCCCeBHWKle2c+Uc2actMisDYCxPdL6y7WGx0tBWshtjnsbLGwNcA7XiNRzq1W2vycOZJzDvGZuRdmF+tF+qH19XZ4JGR1NDO8l0hjDyGvjLiSA07zdd3dIAKxU6jXam19YrFx7/oByJ0lG9NV2TfdfEf1Q77U9NV2TfdfEf1Q77VFz1Gu1N3CcXfQHJ1Gu1N3CcXfQHIalG9NV2Tetd8R/VDvtVh9tjb7yBzw2fr/lngSqvk94uctHJAai39CiAiqo5Hhzi7UepYdOBWGPUa7U3cJxd9Acg2NNqZxA/EXi0akDjQkIlqj7MMb5do3LBkbS5xxfadABr/APu41sPt/NHvKNXYG5PPG2A8cUec+eFBT26ss5L7PYzKyaVk5GgqJnM1YN0HVjQSd7QnQjQyVNGjQCddAix86iRsMD5X/mtaSfeWurn9j6TNHOvGuPXyPfHeL3VTU+8dS2mEhbA34omxj4lsL4unkpsL3eohaXSRUUz2gdchhIC1qnOc6TVx1JOpPZRUnmQlS3ZW5N/EOcFNEylxRjYyz0kr+LxJLIaSmAPXDWtfMB/4ndlRpWi03TFN/o7JbopKq43arjpoGa6vlmleGtHHnJc7T41I/tnt/B/JtZG0NG7SGdmHzIG8x/8AwuV5/wCrj8SxO2CbbRXba7y2o7hE2SFtzlnDXc2/FTyyMPxOY0/EiWamH2U9m3CuzXlbbsJWiCGa8TxsqL3cgwdErKsj1R3tAehtJLWNPMO+5xNzcb4vsuAcJXfGeI6kU9rslFNXVcumpbFG0udoOudBwHXOirTNd0aheSzby6t2bWW+I8uLtUOgpMQ2+WhfMwbzoS5p3ZAOuWu3Xaa8dEVCVtfbZONtqPExgPRrNgq3yE2uysk/O63R6jQ6PlI4dhoJa3XVznfm2SNkDHO1Hi7oNGJrVhG3SN/C97dH6lo4EwQ68HzEHm5mg6u5wHZFYI5H7NB2PIIcwMe4dZhCGcumntj5n1tRECTutjfG1kbncASXO3df19NDJ3gDLrCWV2EqDBGCbNBbLPbYhFBTwjQAacXE87nEjUuPEkkkkklEx+PKbKbA2S+CrfgXL6yw221ULNA1o1kmeR6qSR/O97uu48eYcwC9moTts/a4zzue0TiqzYczKv2H7PhW6TWu3UVpr5KWMdBduue/oZHRHOeHEl2umug4BZvZdbVuYNy5PW6Z+Xjoc+LrNQ1NK2qfG1rJ6hs4giqCwaDne0uboAS13DQorNPUd5cqCHJXbP2isNZ0WTE1wzPxBfYbndaeC5264VjpqWphlma17GxOO5EdD6ksDd0gAcNQZ2oXb8THn9ZoKDuVGLyz36TlX/Du/wDelUnRUYvLPfpOVf8ADu/96VEq0PJK+ygqvgzW/wCSFTMqGbklfZQVXwZrf8kKmZQgiIii6PXddHoNdDPr18MwPhPc/GpFMlyavsOcDfv3Hx2ZQ259evhmB8J7n41IpkuTV9hzgb9+4+OzIzGUCIiNIEtvj2XWZP8AM2f4I1IFyQHsdMQfC2p8VpVH7t8ey6zJ/mbP8EakC5ID2OmIPhbU+K0qM+s61anaU2f8M7SOV1wy5xG40zpS2poK5jN99HVsB3JANRqOJDm6jVpI1GuousiNIn8G8jxmU7FEQzAzHw/Dh2KXWV9oEstZPGDzNbKxjI3EdcueGnrOUoOA8EYcy5wjasE4StkdvtFnpmUtJTMJIjY0acSSS4k6kuOpJJJOpVfRAREQEREBERAWJG29sL0W1LDb8T4Yu1LYsZWiM00dTUsLqetpiSRFMW6ubuuJLXgHTecC12o3ct0QRz7L3JXVWXOYFDj/ADsxFaL3+Bpm1NutVrEklO+dp1ZJO+VrC4MIBDA3QkDUkAgyKxMEbAwN006y7ogIiICIiAiIg6SMEjdxw1BUcG1ByVuIMw8zrlmBktiWw2ylv87q2vtd1MsLIKl51lfC+Jj9WPcS/cLRuknQkEBskSIMS9i3YRsmy62pxVfbrFf8Z3CE08tXHFuwUcBOpig19Ud4hu88gF26PUt4g5ZrlEBERAREQEREBRB8sJ6/uEvgqzxqZS+KIPlhPX9wl8FWeNTIK9yNnrj4/wD5JT+MBSukgDUqKLkbPXHx/wDySn8YClZqpBDTvlIJDRqdEFos9dq7I7Z4hiGZOLmQV9U0vp7ZSxOnq5QP1uht/MaSNA55a0nhqrEjlatlvr2/G/1VB59RO5zZl3/N/M7EeYeJKmSWqvNfLO1jnlwgi3j0OJup4Na3daB2AF7PC+xltO4zw/b8V4YydvFfabrTsqqKqZJA1s0LwHNe3feDoQQRw66J2kv9Nq2Wvc/G/wBVQefT02rZa9z8b/VUHn1HINgva6P/ALjL38/S+dX628nzthvaHjI+56EajWvogfk6MipEPTatlr3Pxv8AVUHn1yOVq2Wid38H43GvXNqg0/zqO9vJ7bYjiGjI+5DU6cbhReeVBzM2MtpHJ7CNTjzMbLSaz2KjkiinqzcaKbcdI8MYNyKZzzq5wHAdfjoiJuMk9ojKHP6zTXrK/FkFzbTuDKmmLHRVNOetvxPAcAes7TdOh0J0VzVAPsSZi4hy62msC1djq3sivV2prHXw7x3J6apkbG4OHX03g4a8zmtU+7Tq0HvIr8t0pvRluqqXTXo0To/lGi1s8X4crsH4rvGE7nEY6uy19Rb52nrSQyOjd/u0rZWdrunRQk8plkxU5X7SNxxLTUr2WbHUTbzSPP5vok+pqma9d3RB0Q96ZqDIDH1MM9eSjwxebO0yVeAI6Z80LQS5goZJKR+vY/Iv6J72ij/yUzGqMos28KZkUrd91gusFXIwHjJEHaStHvxl4+NZfcl3nrY7ZdsQ7NWYE0clix210tubUO/JGrMfQ5oCD/8AFjDdNSBrHoNS8LHLav2cMR7NOatdhC4QzT2Otc+rsNxcCW1dGXcAXaAdEj1DHjTnGum65pJO09+FMUWTGWHLZirDtfHWW27U0dZSTxnUSRSNDmn5COHWVXUKexZygeIdm6JuA8b2+pxBgWSUvijhcDVWx7jq50O8QHxkkkxkjidWkEuDpPMDbauy/j60sutpznw1SB3B0F1q22+dhHODHUFp+Mag9YlCL36Lx2beZ2G8osub9mNiesZBb7JRyVLw54a6Z4GjIma873vLWtHXLgrYZlbd+y9lpbX11dmvZ7xPuuMVFY5RcJ5XAa7o6ESxmvNq9zR31FVtibbuM9qW6xWmnpH4fwVbpui0VqbLvSTyDUdHqXDg5+mujR6loJ03id4i1j5ijEFbi/E92xRcn71Vea2eunPZkleXu/3cVJDnTFJkXyWGFsvrkxtJdsYegGPhdwkD5qg17wRz6hke6eweCxh2Etlu5bQ+bFHX3q3PGB8MzR1l7qJGaRVBadWUgPXMhGjtOZgedQd0H1vKXbQtDm7m9TZfYUrI5sM4BZJQRSxEFk9c8jo7xpztaI2RjvteRwI1EWF2acKyY22g8usNNjdI2rxLbjM1o1PQWTsklPxMY4rYghZ0ONsftRoFENySmTVVirOO55u19JrbMG0boKWRzDo6vqGlg3TzHdh6Nr2C9nZUviK4KjF5Z79Jyr/h3f8AvSqToqMXlnv0nKv+Hd/70qJVoeSV9lBVfBmt/wAkKmZUM3JK+ygqvgzW/wCSFTMoQRERRdHruuj0Guhn16+GYHwnufjUimS5NX2HOBv37j47Mobc+vXwzA+E9z8akUyXJq+w5wN+/cfHZkZjKBERGkCW3x7LrMn+Zs/wRqQLkgPY6Yg+FtT4rSrCHlKsG3PCe1niqurKVzKTEUdLdaGQg6SxuhYx5HvSxyN+IK/3JNbRuB8IU18yLxfdILXW3i5i6WWeplbHHVSvjZE+nBOgD/ybC0E+q3nAcQATPqUtF82zMcA4HgVz0RqNO6Lp0RqdEag7ounRGp0RqDui6dEanRGoO6Lp0RqdEag7ounRGp0RqDui6dEanRGoO6Lp0RqdEag7ounRGp0RqDui6dEanRGoO6Lp0RqdEag7ounRGp0RqDui6dEanRGoO6Lp0RqdEag7ounRGp0RqDuog+WE4Z+YS+CrPGplLfdLvbrNb6i6XStho6SlidNNPPI1kcbGjUuc5xAAHfKg35QfPvDWf+0BUXrBdSaqw2CgjstHVj8yr3HvfJMzr7pfIQD1wwHrolq+/I2euPj/APktP4wFKtcP0Go/hu/soz+RqwZcWPzFzBqKVzKKRtJaKWUg6SSNLpZmjvtBh1/fCkzqmCWnfGeZw0Q7azlVwq5T/wDMP91sC7HczJ9lnKt7QdBhO2t496Bo/wDsoNs+sosQ5H5r4hy6xDRzRPtlY/0LM+MtbU0rnHoMzetuuaAe8eB4jRVew7Vu0dhfD9vwph3OHE1vtFqgZTUdJTVRjZBEwaNY3TmAAQjYU4d5NR2Vr79WLtR93PGX1lIvjLtdbT8zt+TPTGuo4DdusrdB8R4orYO1HZWKfKdxiTY9xa7eILKq2OGn/wDWw/aomuq12nOtnrjj63n8pULFufeduPLNPh7GeaeK73bKosM9HXXSaaCQtcHNJY5xB0cAR3wESv27MnsissfhfaPG41sQt/NHvKBXYRyoxJmntK4MFlo5TRYcudNfblVbhMcEFPIJAHHmBe5rWgc53tebip6m/mj3kI5WPe21s2Ue0pk9V4do44o8TWkmvsNS/Qbs4HqoXOPMyRo3T2DuO47oWQi4I1CK1pqyjxFgnEslHW09bZ75ZKsskY8GKopKmJxBB67XNcPlCkuyV2kcltuXLKn2ftqH0Nb8Z04ay3XdzmwmumA3GT08hG7HU8dHRn1LyToCCWNuxty7AVrz/ppMxMuBSWrH9NHpK1/qKe7xtGjWSED1MoAAbJzEepdw0LIgsY4LxjlviWqwpjSwV1jvVA8NmpaqMskZrxa4dZzSBq1zToRxBIRPjJbP7k3c+so6ypuWELTLjvDQcTDV2mIvq2M6wlpQS/eHZZvt04kjmWK1ytdys1ZJb7vb6mhqonFr4KiJ0cjCOcFrgCCsk8leUR2j8maSnsjcQU+KrJThscdDf2OqHQxj9WOdrmyNGnABxc0cNAslKLldMBXaISY02bxLUBoBdDcYKlpPe6LCwgd7UoRHBYsOYgxTXR2vDFjuF3rJToymoaZ88rj3mMBJ+RZg7O/Ji5uZk1NLiDNxr8CYW1a+Vk5ablOzX81kXNF+9LoRqDuOV17ryvOGbVSyx4A2d6ekqHsIjlqrjHExjusTHFEd4d7eHvrFfPHbp2iM+Kaa0YhxW2z2OoG7JaLIw0tPKOxISXSSDstc4t7yFZP7Te2BlXkHlxLsybIbKaJ7I30lzv8Ab5N6OnDx+UEcw4zVDhwdKDowcxLh+Tj+wNgjFWZ2MbZgjB9skuV6vVS2npoWkeqceJc4ng1jRq5zjwABJOgX7sssqMwc5MV0+DcusN1t4ulSdXNgb6mGPUAySyH1MbBqNXPIGpHOTopmdizYgwvsxWP8PXiSlvOO7jEG11yaw9DpYzxNPT73EM5tXEBzyNToNACcrnbMORNj2dsorPlxaXMnqqdpqLnWBuhq62QAyyaa8BqA1o6zWtHWV2VxoBzBco04KjF5Z79Jyr/h3f8AvSqToqMXlnv0nKv+Hd/70qJVoeSV9lBVfBmt/wAkKmZUM3JK+ygqvgzW/wCSFTMoQRERRdHruuj0Guhn16+GYHwnufjUimS5NX2HOBv37j47Mobc+vXwzA+E9z8akUyXJq+w5wN+/cfHZkZjKBERGmLe3ZshQbTuAoKqwGClxph5sj7TNIQ1lQx3F9NI7rNdoCD1nDrAlQp4xwRjHLnEdVhbGuHa6x3ihk3JqSriMb2HrEdYtI4hw1BHEEhbJ7mh3OF4/MDJ7K/NShbbsxcCWbEMDCTG2vpGSmM9ljiNWnvghExryU+Y2P6eFkFPji/xRMG6xjLnMGtHYADuC+n4zMxu33EX1pN5Sm+fyfWyC97nnJi3AuOpDaqpA+QSLj0vjZB7jNB9LqfOIqEL8ZmY3b7iL60m8pPxmZjdvuIvrSbylN76Xxsg9xmg+l1PnE9L42Qe4zQfS6nziCEL8ZmY3b7iL60m8pPxmZjdvuIvrSbylN76Xxsg9xmg+l1PnE9L42Qe4zQfS6nziCEL8ZmY3b7iL60m8pPxmZjdvuIvrSbylN76Xxsg9xmg+l1PnE9L42Qe4zQfS6nziCEL8ZmY3b7iL60m8pPxmZjdvuIvrSbylN76Xxsg9xmg+l1PnE9L42Qe4zQfS6nziCEL8ZmY3b7iL60m8pPxmZjdvuIvrSbylN76Xxsg9xmg+l1PnE9L42Qe4zQfS6nziCEL8ZmY3b7iL60m8pPxmZjdvuIvrSbylN76Xxsg9xmg+l1PnE9L42Qe4zQfS6nziCEL8ZmY3b7iL60m8pPxmZjdvuIvrSbylN76Xxsg9xmg+l1PnE9L42Qe4zQfS6nziCEL8ZmY3b7iL60m8pPxmZjdvuIvrSbylN76Xxsg9xmg+l1PnE9L42Qe4zQfS6nziCEL8ZmY3b7iL60m8pPxmZjdvuIvrSbylN76Xxsg9xmg+l1PnE9L42Qe4zQfS6nziCEL8ZmY3b7iL60m8pPxmZjdvuIvrSbylN76Xxsg9xmg+l1PnE9L42Qe4zQfS6nziCEL8ZmY3b7iL60m8pPxmZjdvuIvrSbylN76Xxsg9xmg+l1PnE9L42Qe4zQfS6nziCEL8ZmY3b7iL60m8pPxmZjdvuIvrSbylN76Xxsg9xmg+l1PnE9L42Qe4zQfS6nziCEL8ZmY3b7iL60m8pPxmZjdvuIvrSbylN76Xxsg9xmg+l1PnE9L42Qe4zQfS6nziCEL8ZmY3b7iL60m8pPxmZjdvuIvrSbylN76Xxsg9xmg+l1PnE9L42Qe4zQfS6nziCDe542xleac0V3xZeK6nJ1MVTXSysJ/dc4jVeyyI2dsz9ojGEGFcvrDLNH0Rno+5ytLaOgiJ/Plk00HAHRo1c7Tg0qZyi2AtkShqY6qPJSzyOjOobPLNMw++x7y0/GFezDGDsK4KtEFgwjh+32a3Uzd2GloadkMTB3mtAARMeRyAyUw3s/5YWfLPDDS+C3RF1RUvaA+rqXHWSZ4GvFx62vAaDmAVxiAQQRqCuURVtc4dnbJ7Pe3w0GZ2BqC8Gm1FPUu3o6inB5xHKwh7QdBqNdDoNRwCsgOS32RT+dhG9fXc/2rLlEGI/pW2yH2o3r67n+1PSttkPtRvX13P9qy4RBiP6Vtsh9qN6+u5/tXLeS52RGODhg68u0Oujr3OQff4rLdEHh8rMlsscl7AMNZa4Ot9joS7okop2EvmfppvyPcS97tOGriV7dcogIiIOC0HnGqtvnLs85R582X8DZlYNorpugiCr0MdTTa9eOVuj28QOGunDiCrkogjGzU5HOR9RPW5NZpsjhdoYrfiGnJLT1/+JhB1HYHQvfJViLryV21tbJjFR2GwXRmv/MpLxE1p7/5boZ/2U2C4RMQr2Tkp9rC7TNjr7bhqzsJ4yVt3a8N+KBsmqyGyp5HiwW+eO4Zx5lz3UBoLrbZIPQ8e/rxBqJCXub1tAxh74UkWmq5Qx4rK/JrLPJvD7MNZb4Nt9ioQd6RtPH6uZ2mm9I86ukdwHFxJXtAAOAC5RFEREHBUYvLPfpOVf8ADu/96VSdFRi8s9+k5V/w7v8A3pUSrQ8kr7KCq+DNb/khUzKhm5JX2UFV8Ga3/JCpmUIIiIourxqNV2RBrqbRdFNbc/Mx6KcergxVdGHv6VUnFS+8mLd6O5bIGFKamla6S3VdxpahoPFknoqR4B7GrXtPvELAjlQcja7LfP2ozDoqItsOPB6NjmaCWtrmgCojJ6xJ0k4njvu04NOlL2CNtBuzNiipwxjKOoqcC4imZJWOhaXyW+oA3RUsYOLm6aB7RxIAI1Ld1xmJuUXjcE5w5X5i2eG+4Kx5Y7xRzsDxJSVsb93Uczmg7zCOu1wBB5wvRdMFj916P55v2o0qCKn9MFj916P55v2p0wWP3Xo/nm/agqCKn9MFj916P55v2p0wWP3Xo/nm/agqCKn9MFj916P55v2p0wWP3Xo/nm/agqCKn9MFj916P55v2p0wWP3Xo/nm/agqCKn9MFj916P55v2p0wWP3Xo/nm/agqCKn9MFj916P55v2p0wWP3Xo/nm/agqCKn9MFj916P55v2p0wWP3Xo/nm/agqCKn9MFj916P55v2p0wWP3Xo/nm/agqCKn9MFj916P55v2p0wWP3Xo/nm/agqCKn9MFj916P55v2p0wWP3Xo/nm/agqCKn9MFj916P55v2p0wWP3Xo/nm/agqCKn9MFj916P55v2p0wWP3Xo/nm/agqCKn9MFj916P55v2p0wWP3Xo/nm/agqCKn9MFj916P55v2p0wWP3Xo/nm/agqCKn9MFj916P55v2p0wWP3Xo/nm/agqCKn9MFj916P55v2p0wWP3Xo/nm/agqCKn9MFj916P55v2p0wWP3Xo/nm/agqCKn9MFj916P55v2p0wWP3Xo/nm/agqCKn9MFj916P55v2p0wWP3Xo/nm/agqCKn9MFj916P55v2p0wWP3Xo/nm/agqCKn9MFj916P55v2p0wWP3Xo/nm/agqCKn9MFj916P55v2p0wWP3Xo/nm/agqCKn9MFj916P55v2p0wWP3Xo/nm/agqCKn9MFj916P55v2p0wWP3Xo/nm/agqCKn9MFj916P55v2p0wWP3Xo/nm/agqCKn9MFj916P55v2p0wWP3Xo/nm/agqCKn9MFj916P55v2p0wWP3Xo/nm/agqCKn9MFj916P55v2p0wWP3Xo/nm/ag/eeZRb8s1d6OXEWWNjjlaaqno7nUyMB4tY98DWkjvmN2nvFZ0Z27VWSORdgqLrjXG1B6KYwugtVJMyauqnAcGxwtO9xOg3jo0a8SAoQtpHPnEW0dmrdMysQs9DtqA2nt9GH7zaOkYfycQPDU8SXOAGri46AHRErI3kjaGap2l7pVRj1FJharfJ7xmgaP93f7KZFR68kZkhX4XwJiDOi+28wT4qe2gtRkaWuNFC4l7wDx3XyaAdkRA8xBMhSEEREUREQW5z3yNwTtA5d1+XWOKEyUlXpJDURgdGpKhoPQ54ieZ7SfeILmnUEgwr7R2xPnRs53WsmueH6q9YVikIpsQW+F0lO6PTgZgNTA7TgQ/hrruudzqe5fOSCKZpZKwOB14Hig1l952g9UdBwHFcbzvbH5VsT3bZv2fb9VvuF7yQwLX1UpLnz1OH6WSRx65LnM1K/A7ZT2ZSCBs+5d6/Bqj82iY1595wJBLhom872x+VXZ2sMEW/LvaOzDwpaLdBQUFLfqp9HSwRiOKCnkeZI2MaODWta9oAHAADRSC8mRlTkfmvs7yVeNsosG3672a+VlBNW3Gy01RUPaWxysDnvYXEBs2g1PAAIiKHfd7Ypvu9sVsMdSlsx/s+Zd+DdJ5tOpS2Y/2fMu/Buk82hla8++72xTfd7YrYY6lLZj/AGfMu/Buk82nUpbMf7PmXfg3SebQyteffd7YrkOeeYlbC/UpbMf7PmXfg3SebXEmyrsxMjc47PuXYABJ/wDRuk82hla9O87rkhcbzh+sV6rNd9nkzRxg/D9HT0lsdf7gaOnp4xHFDB6IfuMY0cGtDdAAOAAClp2BNm7JPE2ypgrEWOsoMH3y73JtbUTVtyslPUVEjTWTCMOkewuIDA0DU82iGVDZvu9sU33e2K2GOpS2Y/2fMu/Buk82nUpbMf7PmXfg3SebQyteffd7Ypvu9sVsMdSlsx/s+Zd+DdJ5tOpS2Y/2fMu/Buk82hla8++72xTfd7YrYY6lLZj/AGfMu/Buk82nUpbMf7PmXfg3SebQyteffd7Ypvu9sVsMdSlsx/s+Zd+DdJ5tOpS2Y/2fMu/Buk82hla8++72xTfd7YrYY6lLZj/Z8y78G6TzadSlsx/s+Zd+DdJ5tDK15993tim+72xWwx1KWzH+z5l34N0nm06lLZj/AGfMu/Buk82hla8++72xTfd7YrYY6lLZj/Z8y78G6TzadSlsx/s+Zd+DdJ5tDK15993tim+72xWwx1KWzH+z5l34N0nm06lLZj/Z8y78G6TzaGVrz77vbFN93tithjqUtmP9nzLvwbpPNp1KWzH+z5l34N0nm0MrXn33e2Kb7vbFbDHUpbMf7PmXfg3SebTqUtmP9nzLvwbpPNoZWvPvu9sU33e2K2GOpS2Y/wBnzLvwbpPNp1KWzH+z5l34N0nm0MrXn33e2Kb7vbFbDHUpbMf7PmXfg3SebTqUtmP9nzLvwbpPNoZWvPvu9sU33e2K2GOpS2Y/2fMu/Buk82nUpbMf7PmXfg3SebQyteffd7Ypvu9sVsMdSlsx/s+Zd+DdJ5tOpS2Y/wBnzLvwbpPNoZWvPvu9sU33e2K2GOpS2Y/2fMu/Buk82nUpbMf7PmXfg3SebQyteffd7Ypvu9sVsMdSlsx/s+Zd+DdJ5tOpS2Y/2fMu/Buk82hla8++72xTfd7YrYY6lLZj/Z8y78G6TzadSlsx/s+Zd+DdJ5tDK15993tim872x+VbDHUpbMf7PuXfg3SebUfXKx5JZd5bW/Lm+5b5fYfwzT1M9ypa78EW2GkEz92B0W/0No3tB0XTXm1KGVHaC4nQOPyrjfd2XLKTk27DgXFm0xR4UzCwjZcR267WithjpLrRx1MLZmhsrXhkgI3g2N4B59CVLo3ZS2Y90f8A5fcu+btbpPNoZWvPvu9sU33e2K2GOpS2Y/2fMu/Buk82nUpbMf7PmXfg3SebQyteffd7Ypvu9sVsMdSlsx/s+Zd+DdJ5tOpS2Y/2fMu/Buk82hla8++72xTed7Y/Kthg7KWzH+z7l34N0nm1F/yqeEstsA5tYTwfl1gPD2GY4bE+vq2Wi3Q0nR3SzuawvEbRvaCE6a+2KGVhRvO9sflXG+72xWbnJV5P4KzRzVxdVZgYPs+JLXacPhrKS60MdVC2olqIy14ZICA4NjkAPP6oqTzqUtmP9nzLvwbpPNoNeuGCpq3x0tNG+WSV4bHG3i5zjwAA65WbGyPybWYGa11ocYZy2quwtg6F7JhR1LHQ19zHOGNYfVRRnrvdo7T80HXeEreFskcm8DVguGC8q8J2GqaNBPbbPT00gH7zGA/7r2YiY0BrRoG8wB5kWR+Kw2W24dtFJYrNQQ0VBQQspqangYGRxRMaGtaxo4NaAAAOtoqgiIoiIgIiICIiAiIgg85TewSWXa8xTVujc2O70tvroieZw9Cxxkj/AFRv+RZTcjZiqklwTmDgx08YqKO601yEZcA4tmh6Hrp1x+QH+3ZXPKybON+xVbrRn1hShmrXYfojb75DCzefHRh7nx1Gg4lrC94eRzNO8dGtJEb+VGb2YeSOLocbZa4jqLPc4m9De5jWvjmjJBMckbgWvadBwcDpzjQ8US9tjsLlQ9Rcr7tFRxsY/BmA3uaAC40dWC7v8KhfT04HaI7SMBfQ6v8A7hDUwKKH704HaI7SMBfQ6v8A7hPTgdojtIwF9Dq/+4Q1MCvP4/v9NhbBN/xHWVDIIbZbKmrkkedGtayNziSfiUTp5YDaHPA4IwF9Dq/+4VpM+9vzP/aCsD8IYhuVusdgnAFVbrLA6GOr0IIErnue9zdR+bvBvMSDoNC6xynmlqpn1Mp1lle5zj1ySdf/ALrYS2UrBHhnZvy1tMce5uYYt8rm9h8kLZH/APU8n41CLsu5AYl2i82bTgiy0kptrJmVN6rQ07lJRNdq9xPtnabrB13EdYEjYItdvpLTbKS1UEDYaajgjp4Y2jgyNjQ1rR3gAAg/UiIgIiICIiAiIgIiICIiAiIgIiICIiAiIgIiICIiAiIgIiICIiAiIgIiICwV5Xu0tqtnaw3QR7z6HFNON7Ti1r6eoB+UhvyLOpWg2rclWZ/5H4jy3jdEyvq4G1Ftlk4NirIjvxEnsEjdPecUENuwbfosO7XGW9fPUsgjlub6Nz3u0H5aCWJo+Nz2hT3sOrQeyNVrV4gw/iTAWKKvD1/oau0Xyy1ZhnheDHLBMw84PW4gEOHONCCssMBcqntNYLw7T2C59LuKX0o3GV94o5DUuYOYPdDIwPI9sQXHrkniifU0yKH0csDtEAf+pGAvodX/ANwufTgdojtIwF9Dq/8AuENTAoofvTgdojtIwF9Dq/8AuE9OB2iO0jAX0Or/AO4Q1MA46NJ1UKXKoYhpL7tYVlJSTMkNmsdDb5d1wduv1kmIOnMdJm8O+FVsU8rNtLYgstTarbbMI2GeoYWNrqGglfPDr12CaWRmvvtKw+rq7EWNcRy11bPXXi93mq3nPeXT1FXUSO+Nz3Fx9/UgddBJPyMtpc2izRvj2kRySWqlYT/4RUud/wD5NUmSxw2Ctn2v2eshaGw4hjazEN7qH3i7R8D0GWRrWth3gTruMY0HiRvF2hIOqyPRcEREBERAREQEREBERAREQfGppoauF1PURMkjeN17XgEOaecEHnHeWFGd/JVZK5lXKrxDgC5VWA7lVEvfBRxCe3ueSSXdAcQWdYbsb2tHtVm6iCK9/IyYw3z0PPWz7vW1scuv+ZcekyYz7u1l+o5fPKVFETEV3pMmM+7tZfqOXzyekyYz7u1l+o5fPKVFEMRXekyYz7u1l+o5fPL0mC+Rqt1PcWTZg5zT11E06up7RbRTSP8A/MldJu/0/GFJaiGPA5PZHZZ5EYYGEss8LU1poSQ+Z7dXzVMgGnRJZHaue73ydBwGgAC98iIoiIgIiICIiAiIgIiICIiAiIgIiICIiAiIgIiICIiAiIgIiICIiAiIgIiIC4LQRoQD765RBYPaI2LclNpONtbjOxyUN+iYI4b5bHiGrawaaMcSC2VvDgHtdpqd3d1WG925GW9GskNiz0ohSl2sYq7G8yAdglkwB+ID3lKIiJmorvSZMZ93ay/Ucvnk9Jkxn3drL9Ry+eUqKIYiu9Jkxn3drL9Ry+eT0mTGfd2sv1HL55SoohiLWi5GTE3ohn4Rz3tgg19X0GwyF+ne1m0+VZY7OWwHkfs61kWI7ZQ1OIcURa7l4urmvfBq3QiGMAMj6/qgC/QkbxB0WTKIrgNDeYaLlEQEREBERAREQEREBERAREQEREBERAREQEREBERAREQEREBERAREQEREBERAREQEREBERAREQEREBERAREQEREBERAREQEREBERAREQEREBERAREQEREBERAREQEREBERAREQEREBERAREQEREBERAREQEREBERAREQEREBERAREQEREBERAREQEREBERAREQEREBERAREQEREBERAREQEREBERAREQEREBERAREQEREBERAREQEREBERAREQEREBERAREQEREBERAREQEREBERAREQEREBERAREQEREBERAREQEREBERAREQEREBERAREQEREBERAREQEREBERAREQEREBERAREQEREBERAREQEREBERAREQEREBERAREQEREBERAREQEREBERAREQEREBERAREQEREBERAREQEREBERAREQEREBERAREQEREBERAREQEREBERAREQEREH/2Q==;clipPath=inset(19.32% 2.33% 14.54% 2.33%);" vertex="1" parent="1">
          <mxGeometry x="190.05" y="460" width="219.95" height="127.67" as="geometry" />
        </mxCell>
      </root>
    </mxGraphModel>
  </diagram>
</mxfile>
